<?xml version="1.0" encoding="UTF-8"?>
<svg xmlns="http://www.w3.org/2000/svg" xmlns:xlink="http://www.w3.org/1999/xlink" width="50px" height="50px" viewBox="0 0 50 50" version="1.1">
<g id="surface1">
<rect x="0" y="0" width="50" height="50" style="fill:rgb(87.450981%,87.450981%,87.450981%);fill-opacity:1;stroke:none;"/>
<path style=" stroke:none;fill-rule:nonzero;fill:rgb(2.352941%,2.352941%,2.352941%);fill-opacity:1;" d="M 21.875 5.175781 L 22.023438 5.226562 L 20.851562 5.617188 L 19.824219 6.152344 L 19.335938 6.542969 L 18.847656 6.984375 L 18.601562 7.226562 L 18.261719 7.664062 L 17.96875 8.25 L 17.726562 9.179688 L 17.726562 10.253906 L 17.921875 11.132812 L 18.117188 11.570312 L 18.117188 9.765625 L 18.261719 9.03125 L 18.554688 8.300781 L 18.898438 7.714844 L 19.433594 7.128906 L 20.117188 6.59375 L 20.898438 6.203125 L 21.4375 5.957031 L 22.460938 5.617188 L 23.4375 5.421875 L 23.925781 5.371094 L 25.195312 5.371094 L 26.269531 5.46875 L 27.390625 5.710938 L 27.390625 5.8125 L 25.828125 5.957031 L 24.414062 6.152344 L 23.242188 6.445312 L 22.167969 6.882812 L 21.4375 7.273438 L 20.75 7.8125 L 20.554688 8.007812 L 20.460938 8.007812 L 20.359375 8.203125 L 20.019531 8.59375 L 19.628906 9.277344 L 19.382812 10.007812 L 19.289062 10.59375 L 19.289062 11.621094 L 19.484375 10.789062 L 19.921875 9.8125 L 20.265625 9.277344 L 20.703125 8.742188 L 21.4375 8.007812 L 22.21875 7.46875 L 23.144531 6.984375 L 24.316406 6.59375 L 25.195312 6.398438 L 26.515625 6.25 L 27.636719 6.296875 L 28.90625 6.445312 L 29.734375 6.59375 L 30.566406 6.835938 L 30.566406 6.882812 L 29.296875 7.03125 L 28.859375 7.128906 L 28.757812 7.179688 L 29.785156 7.324219 L 30.761719 7.617188 L 31.542969 7.960938 L 31.984375 8.203125 L 32.375 8.546875 L 32.421875 8.789062 L 32.226562 8.9375 L 32.128906 8.9375 L 32.273438 9.082031 L 33.15625 9.570312 L 33.835938 10.15625 L 34.375 10.839844 L 34.523438 11.035156 L 34.523438 11.132812 L 34.328125 11.085938 L 33.984375 10.789062 L 33.105469 10.398438 L 32.859375 10.304688 L 32.714844 10.304688 L 33.351562 10.890625 L 33.984375 11.71875 L 34.328125 12.304688 L 34.617188 13.039062 L 34.71875 13.429688 L 34.71875 14.257812 L 34.617188 14.648438 L 34.523438 14.648438 L 34.277344 13.867188 L 33.886719 13.234375 L 33.984375 14.015625 L 33.984375 14.84375 L 33.9375 15.625 L 33.742188 16.601562 L 33.59375 17.039062 L 33.496094 17.039062 L 33.398438 16.84375 L 32.910156 18.3125 L 32.179688 20.070312 L 31.738281 21.386719 L 31.59375 22.117188 L 31.542969 22.558594 L 31.492188 24.316406 L 31.789062 24.21875 L 32.273438 25.34375 L 32.570312 25.976562 L 32.910156 25.929688 L 33.105469 26.171875 L 33.546875 26.804688 L 34.03125 27.441406 L 34.570312 28.027344 L 34.960938 28.417969 L 35.789062 29.054688 L 36.671875 29.6875 L 36.914062 29.882812 L 36.867188 30.078125 L 36.425781 30.664062 L 35.9375 31.347656 L 35.5 31.882812 L 34.914062 32.519531 L 34.226562 33.203125 L 33.691406 33.640625 L 33.105469 34.132812 L 32.078125 34.8125 L 31.296875 35.253906 L 30.515625 35.644531 L 30.273438 35.742188 L 30.03125 35.742188 L 29.589844 35.304688 L 28.90625 34.863281 L 28.078125 34.472656 L 27.492188 34.277344 L 26.90625 34.179688 L 27.101562 33.835938 L 27.734375 32.960938 L 28.078125 32.46875 L 28.078125 32.375 L 26.515625 31.59375 L 26.21875 31.542969 L 25.734375 32.179688 L 25.292969 32.765625 L 25.097656 32.960938 L 24.902344 33.007812 L 25 33.25 L 25.046875 33.59375 L 25.046875 34.082031 L 22.753906 34.03125 L 22.949219 33.300781 L 23.09375 33.054688 L 23.046875 32.859375 L 22.65625 31.6875 L 22.507812 31.203125 L 22.414062 30.710938 L 22.65625 30.46875 L 23.730469 29.882812 L 23.730469 29.785156 L 22.949219 29.148438 L 22.851562 29.101562 L 22.804688 29.34375 L 22.3125 30.515625 L 21.875 31.6875 L 21.484375 32.617188 L 20.945312 34.132812 L 20.898438 34.179688 L 20.164062 34.179688 L 20.070312 34.132812 L 20.265625 35.546875 L 20.460938 35.742188 L 20.75 35.839844 L 20.75 35.890625 L 20.3125 35.839844 L 19.679688 35.644531 L 19.628906 31.542969 L 19.96875 31.203125 L 20.605469 30.710938 L 20.996094 30.371094 L 21.335938 29.980469 L 21.777344 29.492188 L 22.21875 28.808594 L 22.414062 28.417969 L 22.609375 27.929688 L 22.753906 27.929688 L 22.65625 27.441406 L 22.414062 27 L 22.851562 26.855469 L 23.925781 26.464844 L 24.902344 26.074219 L 26.171875 25.4375 L 27 24.851562 L 27.390625 24.511719 L 27.585938 24.070312 L 27.78125 23.09375 L 28.027344 21.335938 L 28.078125 21.140625 L 28.859375 20.996094 L 29.539062 20.65625 L 30.078125 20.214844 L 30.421875 19.824219 L 30.761719 19.289062 L 30.957031 18.796875 L 31.054688 18.3125 L 31.054688 17.578125 L 30.90625 17.089844 L 30.664062 16.796875 L 30.371094 16.648438 L 29.882812 16.648438 L 29.148438 16.894531 L 28.613281 17.285156 L 28.273438 17.726562 L 28.027344 18.261719 L 27.832031 18.992188 L 27.441406 21.484375 L 27.246094 23 L 27.050781 24.023438 L 26.804688 24.265625 L 25.78125 24.902344 L 24.707031 25.4375 L 23.585938 25.929688 L 21.726562 26.609375 L 20.554688 26.953125 L 19.824219 27.101562 L 18.796875 27.148438 L 18.066406 27.050781 L 17.480469 26.804688 L 17.089844 26.367188 L 16.894531 25.828125 L 16.894531 25.195312 L 17.089844 24.414062 L 17.140625 24.121094 L 17.578125 24.171875 L 18.554688 24.367188 L 18.703125 24.414062 L 18.652344 24.5625 L 18.261719 24.851562 L 18.261719 25.195312 L 18.359375 25.4375 L 18.601562 25.539062 L 19.1875 25.585938 L 19.726562 25.488281 L 20.164062 25.292969 L 20.554688 25 L 20.703125 24.707031 L 20.75 24.511719 L 20.75 24.023438 L 20.554688 23.484375 L 20.3125 23.339844 L 18.3125 22.753906 L 17.675781 22.609375 L 17.382812 22.609375 L 17.1875 22.753906 L 16.945312 22.609375 L 16.894531 22.507812 L 16.84375 21.386719 L 16.601562 21.289062 L 16.113281 20.996094 L 15.773438 20.605469 L 15.671875 20.359375 L 15.671875 20.070312 L 16.554688 18.3125 L 16.84375 17.578125 L 16.945312 17.285156 L 16.945312 16.75 L 16.601562 16.308594 L 16.308594 15.96875 L 16.164062 15.578125 L 16.210938 15.085938 L 16.503906 14.257812 L 16.648438 13.671875 L 16.75 12.792969 L 16.75 12.15625 L 15.867188 11.28125 L 15.382812 10.546875 L 15.136719 9.960938 L 15.039062 9.421875 L 15.039062 8.691406 L 15.234375 7.859375 L 15.429688 7.375 L 15.722656 6.933594 L 16.113281 6.492188 L 16.503906 6.203125 L 16.601562 6.25 L 16.308594 6.6875 L 16.0625 7.226562 L 15.917969 7.910156 L 15.867188 8.742188 L 16.015625 9.523438 L 16.308594 10.253906 L 16.601562 10.789062 L 16.601562 10.644531 L 16.503906 10.15625 L 16.453125 9.132812 L 16.601562 8.300781 L 16.84375 7.664062 L 17.234375 7.128906 L 17.675781 6.640625 L 18.40625 6.101562 L 19.433594 5.617188 L 20.460938 5.320312 L 21.191406 5.226562 Z M 21.875 5.175781 "/>
<path style=" stroke:none;fill-rule:nonzero;fill:rgb(87.058824%,87.058824%,87.058824%);fill-opacity:1;" d="M 28.125 9.082031 L 28.953125 9.082031 L 30.03125 9.179688 L 30.515625 9.328125 L 30.761719 9.421875 L 30.710938 9.523438 L 29.296875 9.472656 L 28.367188 9.523438 L 27.734375 9.667969 L 26.757812 9.960938 L 25.78125 10.351562 L 24.757812 10.839844 L 23.828125 11.425781 L 23.339844 11.765625 L 22.65625 12.257812 L 22.265625 12.597656 L 23.289062 12.597656 L 25.046875 12.453125 L 26.320312 12.257812 L 26.855469 12.207031 L 27.882812 12.207031 L 29.054688 12.402344 L 30.273438 12.792969 L 31.203125 13.28125 L 31.882812 13.769531 L 32.46875 14.304688 L 32.519531 14.453125 L 32.324219 14.355469 L 31.835938 14.015625 L 31.101562 13.625 L 30.175781 13.28125 L 28.859375 12.988281 L 27.585938 12.84375 L 26.125 12.84375 L 23.730469 13.183594 L 23.875 13.429688 L 24.511719 13.671875 L 25.292969 13.769531 L 26.953125 13.867188 L 28.171875 14.0625 L 29.148438 14.304688 L 30.078125 14.648438 L 30.859375 15.039062 L 30.90625 15.136719 L 29.445312 14.695312 L 28.664062 14.550781 L 27.296875 14.40625 L 24.707031 14.210938 L 24.707031 14.601562 L 24.65625 15.1875 L 26.023438 16.554688 L 26.21875 16.84375 L 26.269531 17.039062 L 26.269531 18.210938 L 26.21875 18.703125 L 25.929688 19.484375 L 25.488281 20.070312 L 25 20.507812 L 24.5625 20.851562 L 23.875 21.335938 L 24.21875 21.242188 L 25 20.898438 L 25.539062 20.410156 L 25.585938 20.605469 L 25.242188 21.484375 L 24.902344 21.921875 L 24.414062 22.363281 L 23.78125 22.753906 L 22.851562 23.195312 L 21.875 23.535156 L 21.582031 23.535156 L 21.386719 23.144531 L 21.289062 22.898438 L 20.507812 22.703125 L 18.75 22.117188 L 17.921875 21.828125 L 17.773438 21.679688 L 17.820312 21.53125 L 18.507812 21.289062 L 18.261719 21.09375 L 17.871094 20.945312 L 16.84375 20.703125 L 16.453125 20.460938 L 16.359375 20.3125 L 16.40625 20.019531 L 17.285156 18.3125 L 17.675781 17.335938 L 17.675781 16.648438 L 17.382812 16.0625 L 16.945312 15.578125 L 16.84375 15.429688 L 16.945312 14.992188 L 17.234375 14.257812 L 17.382812 13.476562 L 17.53125 12.5 L 17.773438 12.546875 L 18.457031 12.742188 L 18.75 12.792969 L 19.96875 12.792969 L 20.75 12.597656 L 21.582031 12.207031 L 22.703125 11.425781 L 24.070312 10.449219 L 24.757812 10.058594 L 25.632812 9.667969 L 26.464844 9.375 L 27.734375 9.132812 Z M 28.125 9.082031 "/>
<path style=" stroke:none;fill-rule:nonzero;fill:rgb(2.352941%,2.352941%,2.352941%);fill-opacity:1;" d="M 15.96875 12.546875 L 16.0625 12.546875 L 15.820312 14.109375 L 15.527344 15.039062 L 15.476562 15.722656 L 15.578125 16.164062 L 15.867188 16.648438 L 16.210938 16.945312 L 16.164062 17.285156 L 15.867188 18.066406 L 15.28125 19.1875 L 14.992188 19.773438 L 14.890625 20.214844 L 14.941406 20.554688 L 15.1875 21.046875 L 15.671875 21.53125 L 16.113281 21.828125 L 16.164062 22.804688 L 16.359375 23.828125 L 16.359375 24.265625 L 16.164062 25.242188 L 16.164062 25.929688 L 16.257812 26.367188 L 16.601562 26.953125 L 16.945312 27.296875 L 17.429688 27.585938 L 18.210938 27.832031 L 18.554688 27.882812 L 19.773438 27.882812 L 20.703125 27.6875 L 21.335938 27.492188 L 21.726562 27.441406 L 21.726562 27.832031 L 21.484375 28.5625 L 21.140625 29.199219 L 20.898438 29.492188 L 20.851562 29.296875 L 15.578125 29.34375 L 15.527344 29.785156 L 15.527344 30.617188 L 15.820312 30.859375 L 16.453125 31.101562 L 16.554688 31.203125 L 16.554688 34.132812 L 16.164062 33.835938 L 15.625 33.398438 L 14.550781 32.324219 L 14.109375 31.789062 L 13.625 31.152344 L 13.085938 30.371094 L 12.648438 29.640625 L 12.15625 28.757812 L 11.765625 27.78125 L 11.523438 27.050781 L 11.28125 26.074219 L 11.035156 24.367188 L 11.035156 22.753906 L 11.179688 21.289062 L 11.425781 20.019531 L 11.816406 18.75 L 12.257812 17.726562 L 12.648438 16.945312 L 13.183594 15.96875 L 13.71875 15.136719 L 14.210938 14.5 L 14.992188 13.523438 L 15.578125 12.890625 Z M 15.96875 12.546875 "/>
<path style=" stroke:none;fill-rule:nonzero;fill:rgb(2.352941%,2.352941%,2.352941%);fill-opacity:1;" d="M 20.851562 34.71875 L 26.5625 34.71875 L 27.492188 34.960938 L 28.171875 35.253906 L 29.101562 35.839844 L 29.734375 36.476562 L 30.175781 37.257812 L 30.421875 37.9375 L 30.515625 38.476562 L 30.515625 39.992188 L 30.320312 40.867188 L 30.078125 41.453125 L 29.492188 42.335938 L 28.953125 42.921875 L 28.273438 43.40625 L 27.441406 43.75 L 26.710938 43.945312 L 25.878906 44.09375 L 21.140625 44.09375 L 21.140625 43.507812 L 21.726562 43.507812 L 22.117188 43.40625 L 22.363281 43.164062 L 22.414062 43.066406 L 22.460938 35.839844 L 22.3125 35.449219 L 21.921875 35.203125 L 21.046875 35.058594 L 20.898438 34.914062 Z M 20.851562 34.71875 "/>
<path style=" stroke:none;fill-rule:nonzero;fill:rgb(48.627451%,48.627451%,48.627451%);fill-opacity:1;" d="M 35.351562 14.210938 L 35.5 14.257812 L 35.984375 14.941406 L 36.570312 15.867188 L 37.207031 16.992188 L 37.792969 18.3125 L 38.234375 19.679688 L 38.476562 20.800781 L 38.671875 22.3125 L 38.671875 24.460938 L 38.523438 25.734375 L 38.132812 27.296875 L 37.597656 28.664062 L 37.304688 29.199219 L 36.914062 28.90625 L 36.179688 28.417969 L 35.59375 27.976562 L 35.109375 27.539062 L 34.71875 27.148438 L 34.277344 26.609375 L 33.742188 25.976562 L 33.351562 25.488281 L 33.007812 25.046875 L 32.570312 24.316406 L 32.226562 23.4375 L 32.324219 22.265625 L 32.519531 21.4375 L 32.910156 20.359375 L 33.445312 19.09375 L 33.984375 17.871094 L 34.375 17.089844 L 34.617188 16.359375 L 34.914062 15.332031 L 35.15625 14.796875 Z M 35.351562 14.210938 "/>
<path style=" stroke:none;fill-rule:nonzero;fill:rgb(2.352941%,2.352941%,2.352941%);fill-opacity:1;" d="M 35.109375 10.742188 L 35.5 11.035156 L 36.867188 12.402344 L 37.5 13.234375 L 38.039062 13.964844 L 38.671875 14.992188 L 39.355469 16.308594 L 39.84375 17.429688 L 40.28125 18.652344 L 40.671875 20.214844 L 40.867188 21.726562 L 40.917969 22.363281 L 40.917969 24.367188 L 40.773438 25.828125 L 40.625 26.710938 L 40.1875 28.222656 L 39.84375 29.199219 L 39.257812 30.421875 L 38.820312 31.25 L 38.234375 32.128906 L 37.648438 32.910156 L 37.109375 33.546875 L 36.671875 34.082031 L 35.890625 34.863281 L 35.351562 35.304688 L 34.960938 35.644531 L 34.082031 36.28125 L 33.054688 36.914062 L 32.03125 37.453125 L 31.296875 37.742188 L 31.152344 37.695312 L 30.8125 36.914062 L 30.515625 36.476562 L 31.25 36.132812 L 32.078125 35.695312 L 32.859375 35.203125 L 33.789062 34.570312 L 34.617188 33.886719 L 35.203125 33.351562 L 35.9375 32.617188 L 36.375 32.078125 L 36.960938 31.347656 L 37.546875 30.421875 L 37.84375 29.929688 L 38.378906 28.808594 L 38.671875 28.125 L 39.0625 26.90625 L 39.304688 25.734375 L 39.5 24.316406 L 39.5 22.507812 L 39.304688 20.898438 L 39.160156 20.164062 L 38.820312 18.898438 L 38.429688 17.820312 L 37.792969 16.40625 L 37.109375 15.234375 L 36.476562 14.304688 L 36.035156 13.769531 L 35.546875 13.183594 L 35.546875 13.085938 L 35.449219 13.085938 L 35.109375 12.109375 L 34.8125 11.671875 L 34.8125 11.570312 L 35.058594 11.476562 L 35.109375 11.375 Z M 35.109375 10.742188 "/>
<path style=" stroke:none;fill-rule:nonzero;fill:rgb(2.352941%,2.352941%,2.352941%);fill-opacity:1;" d="M 14.601562 10.789062 L 14.746094 10.839844 L 15.039062 11.375 L 15.234375 11.621094 L 15.527344 11.867188 L 15.234375 12.207031 L 14.648438 12.742188 L 14.601562 12.84375 L 14.5 12.84375 L 14.5 12.9375 L 14.40625 12.9375 L 14.304688 13.132812 L 13.820312 13.671875 L 13.28125 14.355469 L 12.890625 14.941406 L 12.453125 15.625 L 11.867188 16.699219 L 11.425781 17.625 L 10.890625 19.09375 L 10.59375 20.117188 L 10.304688 21.777344 L 10.203125 22.898438 L 10.203125 24.316406 L 10.398438 25.683594 L 10.695312 27 L 11.230469 28.613281 L 11.621094 29.445312 L 12.257812 30.566406 L 12.890625 31.445312 L 13.328125 32.078125 L 13.964844 32.8125 L 14.40625 33.300781 L 15.234375 34.132812 L 15.773438 34.570312 L 16.359375 35.007812 L 16.601562 35.203125 L 16.554688 36.816406 L 16.0625 36.570312 L 14.941406 35.789062 L 14.257812 35.253906 L 13.671875 34.71875 L 12.792969 33.835938 L 12.257812 33.15625 L 11.621094 32.324219 L 11.179688 31.640625 L 10.59375 30.617188 L 10.007812 29.394531 L 9.71875 28.664062 L 9.277344 27.246094 L 9.03125 26.21875 L 8.835938 24.707031 L 8.789062 24.121094 L 8.789062 23.242188 L 8.886719 21.777344 L 9.082031 20.359375 L 9.375 19.140625 L 9.617188 18.359375 L 10.15625 16.945312 L 10.9375 15.382812 L 11.476562 14.453125 L 11.960938 13.71875 L 12.304688 13.28125 L 12.84375 12.597656 L 13.523438 11.867188 Z M 14.601562 10.789062 "/>
<path style=" stroke:none;fill-rule:nonzero;fill:rgb(87.058824%,87.058824%,87.058824%);fill-opacity:1;" d="M 24.21875 35.304688 L 25.4375 35.304688 L 26.21875 35.398438 L 26.855469 35.59375 L 27.34375 35.890625 L 27.832031 36.328125 L 28.171875 36.816406 L 28.46875 37.453125 L 28.664062 38.429688 L 28.710938 38.867188 L 28.710938 40.332031 L 28.515625 41.257812 L 28.171875 41.945312 L 27.78125 42.429688 L 27.390625 42.820312 L 26.90625 43.117188 L 26.21875 43.359375 L 25.929688 43.40625 L 24.414062 43.40625 L 24.171875 43.3125 L 24.121094 43.164062 L 24.121094 35.644531 Z M 24.21875 35.304688 "/>
<path style=" stroke:none;fill-rule:nonzero;fill:rgb(2.352941%,2.352941%,2.352941%);fill-opacity:1;" d="M 16.164062 29.980469 L 20.214844 29.980469 L 20.214844 30.175781 L 19.824219 30.371094 L 19.238281 30.617188 L 18.992188 30.90625 L 18.945312 31.101562 L 18.945312 39.941406 L 18.847656 40.429688 L 18.601562 41.40625 L 18.3125 42.140625 L 18.015625 42.625 L 17.625 43.117188 L 17.1875 43.507812 L 16.648438 43.796875 L 16.113281 43.992188 L 15.234375 44.09375 L 14.453125 43.992188 L 13.914062 43.796875 L 13.378906 43.457031 L 12.9375 42.96875 L 12.597656 42.234375 L 12.5 41.75 L 12.5 41.164062 L 12.648438 40.671875 L 13.039062 40.234375 L 13.378906 40.085938 L 13.867188 40.085938 L 14.160156 40.234375 L 14.453125 40.476562 L 14.695312 40.917969 L 14.746094 41.113281 L 14.746094 41.503906 L 14.601562 41.894531 L 14.257812 42.1875 L 14.0625 42.285156 L 13.914062 42.285156 L 14.0625 42.773438 L 14.304688 43.066406 L 14.796875 43.3125 L 14.992188 43.359375 L 15.867188 43.359375 L 16.359375 43.210938 L 16.648438 43.015625 L 16.945312 42.675781 L 17.140625 42.234375 L 17.234375 41.84375 L 17.285156 41.359375 L 17.285156 31.007812 L 17.089844 30.664062 L 16.796875 30.46875 L 16.257812 30.273438 L 16.113281 30.03125 Z M 16.164062 29.980469 "/>
<path style=" stroke:none;fill-rule:nonzero;fill:rgb(87.058824%,87.058824%,87.058824%);fill-opacity:1;" d="M 31.398438 25.539062 L 31.542969 25.683594 L 31.738281 26.320312 L 31.789062 26.855469 L 31.542969 27.492188 L 31.054688 28.273438 L 30.617188 28.859375 L 29.882812 29.929688 L 29.25 30.8125 L 28.664062 31.640625 L 28.273438 32.128906 L 28.125 32.128906 L 27.734375 31.835938 L 26.953125 31.347656 L 26.171875 30.761719 L 25.390625 30.226562 L 24.902344 29.929688 L 24.804688 29.785156 L 25.4375 29.394531 L 27.34375 28.46875 L 28.664062 27.734375 L 29.589844 27.148438 L 30.125 26.757812 L 30.617188 26.367188 L 30.957031 26.074219 Z M 31.398438 25.539062 "/>
<path style=" stroke:none;fill-rule:nonzero;fill:rgb(86.274511%,86.274511%,86.274511%);fill-opacity:1;" d="M 29.25 21.777344 L 29.34375 21.828125 L 29.640625 23.339844 L 30.03125 25.78125 L 29.492188 26.171875 L 28.757812 26.660156 L 28.078125 27.050781 L 26.710938 27.78125 L 25.78125 28.273438 L 25 28.664062 L 24.367188 29.003906 L 24.171875 28.953125 L 23.632812 28.417969 L 23.585938 28.320312 L 23.585938 27.929688 L 24.511719 27.441406 L 25.195312 27.050781 L 25.78125 26.609375 L 26.269531 26.171875 L 26.609375 25.828125 L 26.953125 25.539062 L 27.195312 25.242188 L 27.441406 25.046875 L 27.539062 25.046875 L 27.585938 25.390625 L 27.441406 25.976562 L 27.148438 26.757812 L 27.539062 26.21875 L 27.832031 25.78125 L 28.078125 25.195312 L 28.367188 24.316406 L 28.710938 23.390625 Z M 29.25 21.777344 "/>
<path style=" stroke:none;fill-rule:nonzero;fill:rgb(2.352941%,2.352941%,2.352941%);fill-opacity:1;" d="M 18.261719 15.96875 L 18.75 16.0625 L 21.828125 16.113281 L 22.21875 16.257812 L 22.65625 16.601562 L 23.144531 17.039062 L 23.484375 17.382812 L 23.390625 17.429688 L 22.460938 17.1875 L 21.921875 17.089844 L 20.65625 17.089844 L 20.851562 17.1875 L 21.726562 17.480469 L 22.414062 17.820312 L 22.363281 17.921875 L 21.484375 18.066406 L 20.605469 18.066406 L 19.96875 17.921875 L 19.726562 17.773438 L 19.433594 17.675781 L 19.53125 17.480469 L 19.773438 17.285156 L 19.824219 17.089844 L 19.140625 16.992188 L 18.703125 16.699219 L 18.359375 16.210938 Z M 18.261719 15.96875 "/>
<path style=" stroke:none;fill-rule:nonzero;fill:rgb(85.09804%,85.09804%,85.09804%);fill-opacity:1;" d="M 26.269531 7.765625 L 27.882812 7.765625 L 28.953125 7.910156 L 29.6875 8.105469 L 30.371094 8.351562 L 30.617188 8.398438 L 30.617188 8.445312 L 30.226562 8.445312 L 29.394531 8.300781 L 28.078125 8.203125 L 27.492188 8.203125 L 26.515625 8.300781 L 25.683594 8.445312 L 24.65625 8.742188 L 23.535156 9.277344 L 22.65625 9.863281 L 22.167969 10.253906 L 21.53125 10.789062 L 20.996094 11.328125 L 20.605469 11.816406 L 20.554688 11.71875 L 20.996094 10.695312 L 21.386719 10.109375 L 21.632812 9.8125 L 21.726562 9.8125 L 21.726562 9.71875 L 21.828125 9.71875 L 21.828125 9.617188 L 22.507812 9.082031 L 23.046875 8.742188 L 23.828125 8.351562 L 24.804688 8.007812 L 25.78125 7.8125 Z M 26.269531 7.765625 "/>
<path style=" stroke:none;fill-rule:nonzero;fill:rgb(2.352941%,2.352941%,2.352941%);fill-opacity:1;" d="M 27.246094 37.0625 L 27.441406 37.0625 L 27.78125 38.085938 L 27.832031 38.523438 L 26.171875 38.769531 L 25.148438 38.820312 L 24.902344 38.769531 L 24.851562 37.351562 L 26.515625 37.257812 L 27.148438 37.109375 Z M 27.246094 37.0625 "/>
<path style=" stroke:none;fill-rule:nonzero;fill:rgb(2.352941%,2.352941%,2.352941%);fill-opacity:1;" d="M 19.679688 36.476562 L 20.117188 36.570312 L 21.289062 36.914062 L 21.679688 37.011719 L 21.679688 38.28125 L 21.632812 38.476562 L 21.242188 38.476562 L 20.214844 38.234375 L 19.679688 38.039062 Z M 19.679688 36.476562 "/>
<path style=" stroke:none;fill-rule:nonzero;fill:rgb(2.352941%,2.352941%,2.352941%);fill-opacity:1;" d="M 29.929688 17.382812 L 30.273438 17.382812 L 30.175781 17.871094 L 30.125 18.703125 L 29.980469 19.1875 L 29.734375 19.578125 L 29.539062 19.824219 L 28.953125 20.117188 L 28.808594 20.164062 L 28.46875 20.164062 L 28.5625 19.921875 L 28.953125 19.484375 L 29.003906 18.992188 L 28.90625 18.3125 L 29.296875 17.773438 L 29.734375 17.480469 Z M 29.929688 17.382812 "/>
<path style=" stroke:none;fill-rule:nonzero;fill:rgb(83.92157%,83.92157%,83.92157%);fill-opacity:1;" d="M 28.027344 10.984375 L 29.6875 10.984375 L 30.421875 11.085938 L 31.347656 11.328125 L 32.273438 11.71875 L 32.910156 12.15625 L 33.398438 12.597656 L 33.546875 12.84375 L 33.351562 12.742188 L 32.8125 12.351562 L 31.6875 11.867188 L 30.371094 11.523438 L 29.003906 11.28125 L 27.34375 11.28125 L 26.710938 11.328125 L 26.855469 11.230469 L 27.734375 11.035156 Z M 28.027344 10.984375 "/>
<path style=" stroke:none;fill-rule:nonzero;fill:rgb(2.352941%,2.352941%,2.352941%);fill-opacity:1;" d="M 33.886719 39.5 L 34.375 39.5 L 34.617188 39.648438 L 34.863281 40.039062 L 34.914062 40.429688 L 34.71875 40.820312 L 34.421875 41.0625 L 34.03125 41.0625 L 33.789062 40.867188 L 33.691406 40.625 L 33.691406 39.84375 L 33.835938 39.550781 Z M 33.886719 39.5 "/>
<path style=" stroke:none;fill-rule:nonzero;fill:rgb(2.352941%,2.352941%,2.352941%);fill-opacity:1;" d="M 32.421875 39.550781 L 32.765625 39.550781 L 33.054688 39.796875 L 33.203125 40.085938 L 33.203125 40.476562 L 32.960938 40.867188 L 32.714844 41.0625 L 32.375 41.015625 L 32.128906 40.773438 L 32.03125 40.578125 L 32.03125 40.039062 L 32.226562 39.746094 Z M 32.421875 39.550781 "/>
<path style=" stroke:none;fill-rule:nonzero;fill:rgb(2.352941%,2.352941%,2.352941%);fill-opacity:1;" d="M 16.992188 22.804688 L 17.429688 22.851562 L 18.847656 23.289062 L 19.679688 23.679688 L 19.679688 23.78125 L 19.042969 23.78125 L 17.773438 23.632812 L 17.1875 23.484375 L 17.039062 23.195312 Z M 16.992188 22.804688 "/>
<path style=" stroke:none;fill-rule:nonzero;fill:rgb(2.352941%,2.352941%,2.352941%);fill-opacity:1;" d="M 26.074219 36.230469 L 26.414062 36.230469 L 26.804688 36.476562 L 26.804688 36.523438 L 26.023438 36.671875 L 25.828125 36.621094 Z M 26.074219 36.230469 "/>
</g>
</svg>
