<?xml version="1.0" encoding="UTF-8"?>
<svg xmlns="http://www.w3.org/2000/svg" xmlns:xlink="http://www.w3.org/1999/xlink" width="120px" height="120px" viewBox="0 0 120 120" version="1.1">
<g id="surface1">
<rect x="0" y="0" width="120" height="120" style="fill:rgb(87.450981%,87.450981%,87.450981%);fill-opacity:1;stroke:none;"/>
<path style=" stroke:none;fill-rule:nonzero;fill:rgb(2.352941%,2.352941%,2.352941%);fill-opacity:1;" d="M 52.5 12.421875 L 52.851562 12.539062 L 50.039062 13.476562 L 47.578125 14.765625 L 46.40625 15.703125 L 45.234375 16.757812 L 44.648438 17.34375 L 43.828125 18.398438 L 43.125 19.804688 L 42.539062 22.03125 L 42.539062 24.609375 L 43.007812 26.71875 L 43.476562 27.773438 L 43.476562 23.4375 L 43.828125 21.679688 L 44.53125 19.921875 L 45.351562 18.515625 L 46.640625 17.109375 L 48.28125 15.820312 L 50.15625 14.882812 L 51.445312 14.296875 L 53.90625 13.476562 L 56.25 13.007812 L 57.421875 12.890625 L 60.46875 12.890625 L 63.046875 13.125 L 65.742188 13.710938 L 65.742188 13.945312 L 61.992188 14.296875 L 58.59375 14.765625 L 55.78125 15.46875 L 53.203125 16.523438 L 51.445312 17.460938 L 49.804688 18.75 L 49.335938 19.21875 L 49.101562 19.21875 L 48.867188 19.6875 L 48.046875 20.625 L 47.109375 22.265625 L 46.523438 24.023438 L 46.289062 25.429688 L 46.289062 27.890625 L 46.757812 25.898438 L 47.8125 23.554688 L 48.632812 22.265625 L 49.6875 20.976562 L 51.445312 19.21875 L 53.320312 17.929688 L 55.546875 16.757812 L 58.359375 15.820312 L 60.46875 15.351562 L 63.632812 15 L 66.328125 15.117188 L 69.375 15.46875 L 71.367188 15.820312 L 73.359375 16.40625 L 73.359375 16.523438 L 70.3125 16.875 L 69.257812 17.109375 L 69.023438 17.226562 L 71.484375 17.578125 L 73.828125 18.28125 L 75.703125 19.101562 L 76.757812 19.6875 L 77.695312 20.507812 L 77.8125 21.09375 L 77.34375 21.445312 L 77.109375 21.445312 L 77.460938 21.796875 L 79.570312 22.96875 L 81.210938 24.375 L 82.5 26.015625 L 82.851562 26.484375 L 82.851562 26.71875 L 82.382812 26.601562 L 81.5625 25.898438 L 79.453125 24.960938 L 78.867188 24.726562 L 78.515625 24.726562 L 80.039062 26.132812 L 81.5625 28.125 L 82.382812 29.53125 L 83.085938 31.289062 L 83.320312 32.226562 L 83.320312 34.21875 L 83.085938 35.15625 L 82.851562 35.15625 L 82.265625 33.28125 L 81.328125 31.757812 L 81.5625 33.632812 L 81.5625 35.625 L 81.445312 37.5 L 80.976562 39.84375 L 80.625 40.898438 L 80.390625 40.898438 L 80.15625 40.429688 L 78.984375 43.945312 L 77.226562 48.164062 L 76.171875 51.328125 L 75.820312 53.085938 L 75.703125 54.140625 L 75.585938 58.359375 L 76.289062 58.125 L 77.460938 60.820312 L 78.164062 62.34375 L 78.984375 62.226562 L 79.453125 62.8125 L 80.507812 64.335938 L 81.679688 65.859375 L 82.96875 67.265625 L 83.90625 68.203125 L 85.898438 69.726562 L 88.007812 71.25 L 88.59375 71.71875 L 88.476562 72.1875 L 87.421875 73.59375 L 86.25 75.234375 L 85.195312 76.523438 L 83.789062 78.046875 L 82.148438 79.6875 L 80.859375 80.742188 L 79.453125 81.914062 L 76.992188 83.554688 L 75.117188 84.609375 L 73.242188 85.546875 L 72.65625 85.78125 L 72.070312 85.78125 L 71.015625 84.726562 L 69.375 83.671875 L 67.382812 82.734375 L 65.976562 82.265625 L 64.570312 82.03125 L 65.039062 81.210938 L 66.5625 79.101562 L 67.382812 77.929688 L 67.382812 77.695312 L 63.632812 75.820312 L 62.929688 75.703125 L 61.757812 77.226562 L 60.703125 78.632812 L 60.234375 79.101562 L 59.765625 79.21875 L 60 79.804688 L 60.117188 80.625 L 60.117188 81.796875 L 54.609375 81.679688 L 55.078125 79.921875 L 55.429688 79.335938 L 55.3125 78.867188 L 54.375 76.054688 L 54.023438 74.882812 L 53.789062 73.710938 L 54.375 73.125 L 56.953125 71.71875 L 56.953125 71.484375 L 55.078125 69.960938 L 54.84375 69.84375 L 54.726562 70.429688 L 53.554688 73.242188 L 52.5 76.054688 L 51.5625 78.28125 L 50.273438 81.914062 L 50.15625 82.03125 L 48.398438 82.03125 L 48.164062 81.914062 L 48.632812 85.3125 L 49.101562 85.78125 L 49.804688 86.015625 L 49.804688 86.132812 L 48.75 86.015625 L 47.226562 85.546875 L 47.109375 75.703125 L 47.929688 74.882812 L 49.453125 73.710938 L 50.390625 72.890625 L 51.210938 71.953125 L 52.265625 70.78125 L 53.320312 69.140625 L 53.789062 68.203125 L 54.257812 67.03125 L 54.609375 67.03125 L 54.375 65.859375 L 53.789062 64.804688 L 54.84375 64.453125 L 57.421875 63.515625 L 59.765625 62.578125 L 62.8125 61.054688 L 64.804688 59.648438 L 65.742188 58.828125 L 66.210938 57.773438 L 66.679688 55.429688 L 67.265625 51.210938 L 67.382812 50.742188 L 69.257812 50.390625 L 70.898438 49.570312 L 72.1875 48.515625 L 73.007812 47.578125 L 73.828125 46.289062 L 74.296875 45.117188 L 74.53125 43.945312 L 74.53125 42.1875 L 74.179688 41.015625 L 73.59375 40.3125 L 72.890625 39.960938 L 71.71875 39.960938 L 69.960938 40.546875 L 68.671875 41.484375 L 67.851562 42.539062 L 67.265625 43.828125 L 66.796875 45.585938 L 65.859375 51.5625 L 65.390625 55.195312 L 64.921875 57.65625 L 64.335938 58.242188 L 61.875 59.765625 L 59.296875 61.054688 L 56.601562 62.226562 L 52.148438 63.867188 L 49.335938 64.6875 L 47.578125 65.039062 L 45.117188 65.15625 L 43.359375 64.921875 L 41.953125 64.335938 L 41.015625 63.28125 L 40.546875 61.992188 L 40.546875 60.46875 L 41.015625 58.59375 L 41.132812 57.890625 L 42.1875 58.007812 L 44.53125 58.476562 L 44.882812 58.59375 L 44.765625 58.945312 L 43.828125 59.648438 L 43.828125 60.46875 L 44.0625 61.054688 L 44.648438 61.289062 L 46.054688 61.40625 L 47.34375 61.171875 L 48.398438 60.703125 L 49.335938 60 L 49.6875 59.296875 L 49.804688 58.828125 L 49.804688 57.65625 L 49.335938 56.367188 L 48.75 56.015625 L 43.945312 54.609375 L 42.421875 54.257812 L 41.71875 54.257812 L 41.25 54.609375 L 40.664062 54.257812 L 40.546875 54.023438 L 40.429688 51.328125 L 39.84375 51.09375 L 38.671875 50.390625 L 37.851562 49.453125 L 37.617188 48.867188 L 37.617188 48.164062 L 39.726562 43.945312 L 40.429688 42.1875 L 40.664062 41.484375 L 40.664062 40.195312 L 39.84375 39.140625 L 39.140625 38.320312 L 38.789062 37.382812 L 38.90625 36.210938 L 39.609375 34.21875 L 39.960938 32.8125 L 40.195312 30.703125 L 40.195312 29.179688 L 38.085938 27.070312 L 36.914062 25.3125 L 36.328125 23.90625 L 36.09375 22.617188 L 36.09375 20.859375 L 36.5625 18.867188 L 37.03125 17.695312 L 37.734375 16.640625 L 38.671875 15.585938 L 39.609375 14.882812 L 39.84375 15 L 39.140625 16.054688 L 38.554688 17.34375 L 38.203125 18.984375 L 38.085938 20.976562 L 38.4375 22.851562 L 39.140625 24.609375 L 39.84375 25.898438 L 39.84375 25.546875 L 39.609375 24.375 L 39.492188 21.914062 L 39.84375 19.921875 L 40.429688 18.398438 L 41.367188 17.109375 L 42.421875 15.9375 L 44.179688 14.648438 L 46.640625 13.476562 L 49.101562 12.773438 L 50.859375 12.539062 Z M 52.5 12.421875 "/>
<path style=" stroke:none;fill-rule:nonzero;fill:rgb(87.058824%,87.058824%,87.058824%);fill-opacity:1;" d="M 67.5 21.796875 L 69.492188 21.796875 L 72.070312 22.03125 L 73.242188 22.382812 L 73.828125 22.617188 L 73.710938 22.851562 L 70.3125 22.734375 L 68.085938 22.851562 L 66.5625 23.203125 L 64.21875 23.90625 L 61.875 24.84375 L 59.414062 26.015625 L 57.1875 27.421875 L 56.015625 28.242188 L 54.375 29.414062 L 53.4375 30.234375 L 55.898438 30.234375 L 60.117188 29.882812 L 63.164062 29.414062 L 64.453125 29.296875 L 66.914062 29.296875 L 69.726562 29.765625 L 72.65625 30.703125 L 74.882812 31.875 L 76.523438 33.046875 L 77.929688 34.335938 L 78.046875 34.6875 L 77.578125 34.453125 L 76.40625 33.632812 L 74.648438 32.695312 L 72.421875 31.875 L 69.257812 31.171875 L 66.210938 30.820312 L 62.695312 30.820312 L 56.953125 31.640625 L 57.304688 32.226562 L 58.828125 32.8125 L 60.703125 33.046875 L 64.6875 33.28125 L 67.617188 33.75 L 69.960938 34.335938 L 72.1875 35.15625 L 74.0625 36.09375 L 74.179688 36.328125 L 70.664062 35.273438 L 68.789062 34.921875 L 65.507812 34.570312 L 59.296875 34.101562 L 59.296875 35.039062 L 59.179688 36.445312 L 62.460938 39.726562 L 62.929688 40.429688 L 63.046875 40.898438 L 63.046875 43.710938 L 62.929688 44.882812 L 62.226562 46.757812 L 61.171875 48.164062 L 60 49.21875 L 58.945312 50.039062 L 57.304688 51.210938 L 58.125 50.976562 L 60 50.15625 L 61.289062 48.984375 L 61.40625 49.453125 L 60.585938 51.5625 L 59.765625 52.617188 L 58.59375 53.671875 L 57.070312 54.609375 L 54.84375 55.664062 L 52.5 56.484375 L 51.796875 56.484375 L 51.328125 55.546875 L 51.09375 54.960938 L 49.21875 54.492188 L 45 53.085938 L 43.007812 52.382812 L 42.65625 52.03125 L 42.773438 51.679688 L 44.414062 51.09375 L 43.828125 50.625 L 42.890625 50.273438 L 40.429688 49.6875 L 39.492188 49.101562 L 39.257812 48.75 L 39.375 48.046875 L 41.484375 43.945312 L 42.421875 41.601562 L 42.421875 39.960938 L 41.71875 38.554688 L 40.664062 37.382812 L 40.429688 37.03125 L 40.664062 35.976562 L 41.367188 34.21875 L 41.71875 32.34375 L 42.070312 30 L 42.65625 30.117188 L 44.296875 30.585938 L 45 30.703125 L 47.929688 30.703125 L 49.804688 30.234375 L 51.796875 29.296875 L 54.492188 27.421875 L 57.773438 25.078125 L 59.414062 24.140625 L 61.523438 23.203125 L 63.515625 22.5 L 66.5625 21.914062 Z M 67.5 21.796875 "/>
<path style=" stroke:none;fill-rule:nonzero;fill:rgb(2.352941%,2.352941%,2.352941%);fill-opacity:1;" d="M 38.320312 30.117188 L 38.554688 30.117188 L 37.96875 33.867188 L 37.265625 36.09375 L 37.148438 37.734375 L 37.382812 38.789062 L 38.085938 39.960938 L 38.90625 40.664062 L 38.789062 41.484375 L 38.085938 43.359375 L 36.679688 46.054688 L 35.976562 47.460938 L 35.742188 48.515625 L 35.859375 49.335938 L 36.445312 50.507812 L 37.617188 51.679688 L 38.671875 52.382812 L 38.789062 54.726562 L 39.257812 57.1875 L 39.257812 58.242188 L 38.789062 60.585938 L 38.789062 62.226562 L 39.023438 63.28125 L 39.84375 64.6875 L 40.664062 65.507812 L 41.835938 66.210938 L 43.710938 66.796875 L 44.53125 66.914062 L 47.460938 66.914062 L 49.6875 66.445312 L 51.210938 65.976562 L 52.148438 65.859375 L 52.148438 66.796875 L 51.5625 68.554688 L 50.742188 70.078125 L 50.15625 70.78125 L 50.039062 70.3125 L 37.382812 70.429688 L 37.265625 71.484375 L 37.265625 73.476562 L 37.96875 74.0625 L 39.492188 74.648438 L 39.726562 74.882812 L 39.726562 81.914062 L 38.789062 81.210938 L 37.5 80.15625 L 34.921875 77.578125 L 33.867188 76.289062 L 32.695312 74.765625 L 31.40625 72.890625 L 30.351562 71.132812 L 29.179688 69.023438 L 28.242188 66.679688 L 27.65625 64.921875 L 27.070312 62.578125 L 26.484375 58.476562 L 26.484375 54.609375 L 26.835938 51.09375 L 27.421875 48.046875 L 28.359375 45 L 29.414062 42.539062 L 30.351562 40.664062 L 31.640625 38.320312 L 32.929688 36.328125 L 34.101562 34.804688 L 35.976562 32.460938 L 37.382812 30.9375 Z M 38.320312 30.117188 "/>
<path style=" stroke:none;fill-rule:nonzero;fill:rgb(2.352941%,2.352941%,2.352941%);fill-opacity:1;" d="M 50.039062 83.320312 L 63.75 83.320312 L 65.976562 83.90625 L 67.617188 84.609375 L 69.84375 86.015625 L 71.367188 87.539062 L 72.421875 89.414062 L 73.007812 91.054688 L 73.242188 92.34375 L 73.242188 95.976562 L 72.773438 98.085938 L 72.1875 99.492188 L 70.78125 101.601562 L 69.492188 103.007812 L 67.851562 104.179688 L 65.859375 105 L 64.101562 105.46875 L 62.109375 105.820312 L 50.742188 105.820312 L 50.742188 104.414062 L 52.148438 104.414062 L 53.085938 104.179688 L 53.671875 103.59375 L 53.789062 103.359375 L 53.90625 86.015625 L 53.554688 85.078125 L 52.617188 84.492188 L 50.507812 84.140625 L 50.15625 83.789062 Z M 50.039062 83.320312 "/>
<path style=" stroke:none;fill-rule:nonzero;fill:rgb(48.627451%,48.627451%,48.627451%);fill-opacity:1;" d="M 84.84375 34.101562 L 85.195312 34.21875 L 86.367188 35.859375 L 87.773438 38.085938 L 89.296875 40.78125 L 90.703125 43.945312 L 91.757812 47.226562 L 92.34375 49.921875 L 92.8125 53.554688 L 92.8125 58.710938 L 92.460938 61.757812 L 91.523438 65.507812 L 90.234375 68.789062 L 89.53125 70.078125 L 88.59375 69.375 L 86.835938 68.203125 L 85.429688 67.148438 L 84.257812 66.09375 L 83.320312 65.15625 L 82.265625 63.867188 L 80.976562 62.34375 L 80.039062 61.171875 L 79.21875 60.117188 L 78.164062 58.359375 L 77.34375 56.25 L 77.578125 53.4375 L 78.046875 51.445312 L 78.984375 48.867188 L 80.273438 45.820312 L 81.5625 42.890625 L 82.5 41.015625 L 83.085938 39.257812 L 83.789062 36.796875 L 84.375 35.507812 Z M 84.84375 34.101562 "/>
<path style=" stroke:none;fill-rule:nonzero;fill:rgb(2.352941%,2.352941%,2.352941%);fill-opacity:1;" d="M 84.257812 25.78125 L 85.195312 26.484375 L 88.476562 29.765625 L 90 31.757812 L 91.289062 33.515625 L 92.8125 35.976562 L 94.453125 39.140625 L 95.625 41.835938 L 96.679688 44.765625 L 97.617188 48.515625 L 98.085938 52.148438 L 98.203125 53.671875 L 98.203125 58.476562 L 97.851562 61.992188 L 97.5 64.101562 L 96.445312 67.734375 L 95.625 70.078125 L 94.21875 73.007812 L 93.164062 75 L 91.757812 77.109375 L 90.351562 78.984375 L 89.0625 80.507812 L 88.007812 81.796875 L 86.132812 83.671875 L 84.84375 84.726562 L 83.90625 85.546875 L 81.796875 87.070312 L 79.335938 88.59375 L 76.875 89.882812 L 75.117188 90.585938 L 74.765625 90.46875 L 73.945312 88.59375 L 73.242188 87.539062 L 75 86.71875 L 76.992188 85.664062 L 78.867188 84.492188 L 81.09375 82.96875 L 83.085938 81.328125 L 84.492188 80.039062 L 86.25 78.28125 L 87.304688 76.992188 L 88.710938 75.234375 L 90.117188 73.007812 L 90.820312 71.835938 L 92.109375 69.140625 L 92.8125 67.5 L 93.75 64.570312 L 94.335938 61.757812 L 94.804688 58.359375 L 94.804688 54.023438 L 94.335938 50.15625 L 93.984375 48.398438 L 93.164062 45.351562 L 92.226562 42.773438 L 90.703125 39.375 L 89.0625 36.5625 L 87.539062 34.335938 L 86.484375 33.046875 L 85.3125 31.640625 L 85.3125 31.40625 L 85.078125 31.40625 L 84.257812 29.0625 L 83.554688 28.007812 L 83.554688 27.773438 L 84.140625 27.539062 L 84.257812 27.304688 Z M 84.257812 25.78125 "/>
<path style=" stroke:none;fill-rule:nonzero;fill:rgb(2.352941%,2.352941%,2.352941%);fill-opacity:1;" d="M 35.039062 25.898438 L 35.390625 26.015625 L 36.09375 27.304688 L 36.5625 27.890625 L 37.265625 28.476562 L 36.5625 29.296875 L 35.15625 30.585938 L 35.039062 30.820312 L 34.804688 30.820312 L 34.804688 31.054688 L 34.570312 31.054688 L 34.335938 31.523438 L 33.164062 32.8125 L 31.875 34.453125 L 30.9375 35.859375 L 29.882812 37.5 L 28.476562 40.078125 L 27.421875 42.304688 L 26.132812 45.820312 L 25.429688 48.28125 L 24.726562 52.265625 L 24.492188 54.960938 L 24.492188 58.359375 L 24.960938 61.640625 L 25.664062 64.804688 L 26.953125 68.671875 L 27.890625 70.664062 L 29.414062 73.359375 L 30.9375 75.46875 L 31.992188 76.992188 L 33.515625 78.75 L 34.570312 79.921875 L 36.5625 81.914062 L 37.851562 82.96875 L 39.257812 84.023438 L 39.84375 84.492188 L 39.726562 88.359375 L 38.554688 87.773438 L 35.859375 85.898438 L 34.21875 84.609375 L 32.8125 83.320312 L 30.703125 81.210938 L 29.414062 79.570312 L 27.890625 77.578125 L 26.835938 75.9375 L 25.429688 73.476562 L 24.023438 70.546875 L 23.320312 68.789062 L 22.265625 65.390625 L 21.679688 62.929688 L 21.210938 59.296875 L 21.09375 57.890625 L 21.09375 55.78125 L 21.328125 52.265625 L 21.796875 48.867188 L 22.5 45.9375 L 23.085938 44.0625 L 24.375 40.664062 L 26.25 36.914062 L 27.539062 34.6875 L 28.710938 32.929688 L 29.53125 31.875 L 30.820312 30.234375 L 32.460938 28.476562 Z M 35.039062 25.898438 "/>
<path style=" stroke:none;fill-rule:nonzero;fill:rgb(87.058824%,87.058824%,87.058824%);fill-opacity:1;" d="M 58.125 84.726562 L 61.054688 84.726562 L 62.929688 84.960938 L 64.453125 85.429688 L 65.625 86.132812 L 66.796875 87.1875 L 67.617188 88.359375 L 68.320312 89.882812 L 68.789062 92.226562 L 68.90625 93.28125 L 68.90625 96.796875 L 68.4375 99.023438 L 67.617188 100.664062 L 66.679688 101.835938 L 65.742188 102.773438 L 64.570312 103.476562 L 62.929688 104.0625 L 62.226562 104.179688 L 58.59375 104.179688 L 58.007812 103.945312 L 57.890625 103.59375 L 57.890625 85.546875 Z M 58.125 84.726562 "/>
<path style=" stroke:none;fill-rule:nonzero;fill:rgb(2.352941%,2.352941%,2.352941%);fill-opacity:1;" d="M 38.789062 71.953125 L 48.515625 71.953125 L 48.515625 72.421875 L 47.578125 72.890625 L 46.171875 73.476562 L 45.585938 74.179688 L 45.46875 74.648438 L 45.46875 95.859375 L 45.234375 97.03125 L 44.648438 99.375 L 43.945312 101.132812 L 43.242188 102.304688 L 42.304688 103.476562 L 41.25 104.414062 L 39.960938 105.117188 L 38.671875 105.585938 L 36.5625 105.820312 L 34.6875 105.585938 L 33.398438 105.117188 L 32.109375 104.296875 L 31.054688 103.125 L 30.234375 101.367188 L 30 100.195312 L 30 98.789062 L 30.351562 97.617188 L 31.289062 96.5625 L 32.109375 96.210938 L 33.28125 96.210938 L 33.984375 96.5625 L 34.6875 97.148438 L 35.273438 98.203125 L 35.390625 98.671875 L 35.390625 99.609375 L 35.039062 100.546875 L 34.21875 101.25 L 33.75 101.484375 L 33.398438 101.484375 L 33.75 102.65625 L 34.335938 103.359375 L 35.507812 103.945312 L 35.976562 104.0625 L 38.085938 104.0625 L 39.257812 103.710938 L 39.960938 103.242188 L 40.664062 102.421875 L 41.132812 101.367188 L 41.367188 100.429688 L 41.484375 99.257812 L 41.484375 74.414062 L 41.015625 73.59375 L 40.3125 73.125 L 39.023438 72.65625 L 38.671875 72.070312 Z M 38.789062 71.953125 "/>
<path style=" stroke:none;fill-rule:nonzero;fill:rgb(87.058824%,87.058824%,87.058824%);fill-opacity:1;" d="M 75.351562 61.289062 L 75.703125 61.640625 L 76.171875 63.164062 L 76.289062 64.453125 L 75.703125 65.976562 L 74.53125 67.851562 L 73.476562 69.257812 L 71.71875 71.835938 L 70.195312 73.945312 L 68.789062 75.9375 L 67.851562 77.109375 L 67.5 77.109375 L 66.5625 76.40625 L 64.6875 75.234375 L 62.8125 73.828125 L 60.9375 72.539062 L 59.765625 71.835938 L 59.53125 71.484375 L 61.054688 70.546875 L 65.625 68.320312 L 68.789062 66.5625 L 71.015625 65.15625 L 72.304688 64.21875 L 73.476562 63.28125 L 74.296875 62.578125 Z M 75.351562 61.289062 "/>
<path style=" stroke:none;fill-rule:nonzero;fill:rgb(86.274511%,86.274511%,86.274511%);fill-opacity:1;" d="M 70.195312 52.265625 L 70.429688 52.382812 L 71.132812 56.015625 L 72.070312 61.875 L 70.78125 62.8125 L 69.023438 63.984375 L 67.382812 64.921875 L 64.101562 66.679688 L 61.875 67.851562 L 60 68.789062 L 58.476562 69.609375 L 58.007812 69.492188 L 56.71875 68.203125 L 56.601562 67.96875 L 56.601562 67.03125 L 58.828125 65.859375 L 60.46875 64.921875 L 61.875 63.867188 L 63.046875 62.8125 L 63.867188 61.992188 L 64.6875 61.289062 L 65.273438 60.585938 L 65.859375 60.117188 L 66.09375 60.117188 L 66.210938 60.9375 L 65.859375 62.34375 L 65.15625 64.21875 L 66.09375 62.929688 L 66.796875 61.875 L 67.382812 60.46875 L 68.085938 58.359375 L 68.90625 56.132812 Z M 70.195312 52.265625 "/>
<path style=" stroke:none;fill-rule:nonzero;fill:rgb(2.352941%,2.352941%,2.352941%);fill-opacity:1;" d="M 43.828125 38.320312 L 45 38.554688 L 52.382812 38.671875 L 53.320312 39.023438 L 54.375 39.84375 L 55.546875 40.898438 L 56.367188 41.71875 L 56.132812 41.835938 L 53.90625 41.25 L 52.617188 41.015625 L 49.570312 41.015625 L 50.039062 41.25 L 52.148438 41.953125 L 53.789062 42.773438 L 53.671875 43.007812 L 51.5625 43.359375 L 49.453125 43.359375 L 47.929688 43.007812 L 47.34375 42.65625 L 46.640625 42.421875 L 46.875 41.953125 L 47.460938 41.484375 L 47.578125 41.015625 L 45.9375 40.78125 L 44.882812 40.078125 L 44.0625 38.90625 Z M 43.828125 38.320312 "/>
<path style=" stroke:none;fill-rule:nonzero;fill:rgb(85.09804%,85.09804%,85.09804%);fill-opacity:1;" d="M 63.046875 18.632812 L 66.914062 18.632812 L 69.492188 18.984375 L 71.25 19.453125 L 72.890625 20.039062 L 73.476562 20.15625 L 73.476562 20.273438 L 72.539062 20.273438 L 70.546875 19.921875 L 67.382812 19.6875 L 65.976562 19.6875 L 63.632812 19.921875 L 61.640625 20.273438 L 59.179688 20.976562 L 56.484375 22.265625 L 54.375 23.671875 L 53.203125 24.609375 L 51.679688 25.898438 L 50.390625 27.1875 L 49.453125 28.359375 L 49.335938 28.125 L 50.390625 25.664062 L 51.328125 24.257812 L 51.914062 23.554688 L 52.148438 23.554688 L 52.148438 23.320312 L 52.382812 23.320312 L 52.382812 23.085938 L 54.023438 21.796875 L 55.3125 20.976562 L 57.1875 20.039062 L 59.53125 19.21875 L 61.875 18.75 Z M 63.046875 18.632812 "/>
<path style=" stroke:none;fill-rule:nonzero;fill:rgb(2.352941%,2.352941%,2.352941%);fill-opacity:1;" d="M 65.390625 88.945312 L 65.859375 88.945312 L 66.679688 91.40625 L 66.796875 92.460938 L 62.8125 93.046875 L 60.351562 93.164062 L 59.765625 93.046875 L 59.648438 89.648438 L 63.632812 89.414062 L 65.15625 89.0625 Z M 65.390625 88.945312 "/>
<path style=" stroke:none;fill-rule:nonzero;fill:rgb(2.352941%,2.352941%,2.352941%);fill-opacity:1;" d="M 47.226562 87.539062 L 48.28125 87.773438 L 51.09375 88.59375 L 52.03125 88.828125 L 52.03125 91.875 L 51.914062 92.34375 L 50.976562 92.34375 L 48.515625 91.757812 L 47.226562 91.289062 Z M 47.226562 87.539062 "/>
<path style=" stroke:none;fill-rule:nonzero;fill:rgb(2.352941%,2.352941%,2.352941%);fill-opacity:1;" d="M 71.835938 41.71875 L 72.65625 41.71875 L 72.421875 42.890625 L 72.304688 44.882812 L 71.953125 46.054688 L 71.367188 46.992188 L 70.898438 47.578125 L 69.492188 48.28125 L 69.140625 48.398438 L 68.320312 48.398438 L 68.554688 47.8125 L 69.492188 46.757812 L 69.609375 45.585938 L 69.375 43.945312 L 70.3125 42.65625 L 71.367188 41.953125 Z M 71.835938 41.71875 "/>
<path style=" stroke:none;fill-rule:nonzero;fill:rgb(83.92157%,83.92157%,83.92157%);fill-opacity:1;" d="M 67.265625 26.367188 L 71.25 26.367188 L 73.007812 26.601562 L 75.234375 27.1875 L 77.460938 28.125 L 78.984375 29.179688 L 80.15625 30.234375 L 80.507812 30.820312 L 80.039062 30.585938 L 78.75 29.648438 L 76.054688 28.476562 L 72.890625 27.65625 L 69.609375 27.070312 L 65.625 27.070312 L 64.101562 27.1875 L 64.453125 26.953125 L 66.5625 26.484375 Z M 67.265625 26.367188 "/>
<path style=" stroke:none;fill-rule:nonzero;fill:rgb(2.352941%,2.352941%,2.352941%);fill-opacity:1;" d="M 81.328125 94.804688 L 82.5 94.804688 L 83.085938 95.15625 L 83.671875 96.09375 L 83.789062 97.03125 L 83.320312 97.96875 L 82.617188 98.554688 L 81.679688 98.554688 L 81.09375 98.085938 L 80.859375 97.5 L 80.859375 95.625 L 81.210938 94.921875 Z M 81.328125 94.804688 "/>
<path style=" stroke:none;fill-rule:nonzero;fill:rgb(2.352941%,2.352941%,2.352941%);fill-opacity:1;" d="M 77.8125 94.921875 L 78.632812 94.921875 L 79.335938 95.507812 L 79.6875 96.210938 L 79.6875 97.148438 L 79.101562 98.085938 L 78.515625 98.554688 L 77.695312 98.4375 L 77.109375 97.851562 L 76.875 97.382812 L 76.875 96.09375 L 77.34375 95.390625 Z M 77.8125 94.921875 "/>
<path style=" stroke:none;fill-rule:nonzero;fill:rgb(2.352941%,2.352941%,2.352941%);fill-opacity:1;" d="M 40.78125 54.726562 L 41.835938 54.84375 L 45.234375 55.898438 L 47.226562 56.835938 L 47.226562 57.070312 L 45.703125 57.070312 L 42.65625 56.71875 L 41.25 56.367188 L 40.898438 55.664062 Z M 40.78125 54.726562 "/>
<path style=" stroke:none;fill-rule:nonzero;fill:rgb(2.352941%,2.352941%,2.352941%);fill-opacity:1;" d="M 62.578125 86.953125 L 63.398438 86.953125 L 64.335938 87.539062 L 64.335938 87.65625 L 62.460938 88.007812 L 61.992188 87.890625 Z M 62.578125 86.953125 "/>
</g>
</svg>
