<?xml version="1.0" standalone="no"?>
<!DOCTYPE svg PUBLIC "-//W3C//DTD SVG 20010904//EN"
 "http://www.w3.org/TR/2001/REC-SVG-20010904/DTD/svg10.dtd">
<svg version="1.0" xmlns="http://www.w3.org/2000/svg"
 width="820.000000pt" height="820.000000pt" viewBox="0 0 820.000000 820.000000"
 preserveAspectRatio="xMidYMid meet">

<g transform="translate(0.000000,820.000000) scale(0.100000,-0.100000)"
fill="#000000" stroke="none">
<path d="M2728 6460 c12 -5 27 -21 32 -35 6 -15 10 -127 10 -251 0 -244 -6
-278 -54 -309 -32 -21 -109 -22 -142 0 -47 30 -66 74 -61 138 l5 58 -48 -78
-48 -78 21 -23 c29 -32 113 -71 169 -78 64 -9 143 12 185 49 65 57 67 67 73
328 5 249 7 260 55 279 12 5 -27 9 -100 9 -82 0 -113 -3 -97 -9z"/>
<path d="M2997 6460 c12 -5 26 -18 32 -29 7 -12 11 -118 11 -291 0 -173 -4
-279 -11 -291 -6 -11 -20 -24 -32 -29 -14 -5 76 -8 232 -7 l254 2 28 83 c16
46 31 93 35 105 4 13 -9 2 -29 -24 -68 -88 -180 -138 -284 -126 -80 9 -83 16
-83 214 l0 173 55 0 c71 0 129 -24 155 -63 l20 -32 -5 30 c-31 170 -31 170
-38 144 -8 -32 -29 -39 -119 -39 l-68 0 0 53 c0 80 13 92 102 91 88 -1 154
-27 204 -80 39 -41 39 -40 18 55 l-16 71 -242 -1 c-149 0 -233 -4 -219 -9z"/>
<path d="M3793 6459 c9 -5 17 -21 17 -34 0 -28 -191 -534 -214 -567 -9 -12
-26 -28 -38 -35 -20 -10 -8 -12 77 -12 80 0 95 3 77 11 -39 19 -39 54 3 176
l39 112 41 0 c54 0 157 -51 190 -94 31 -41 55 -98 55 -131 0 -14 -11 -37 -25
-50 l-24 -25 112 1 c86 0 107 3 90 11 -12 6 -25 18 -28 27 -38 93 -195 559
-195 577 0 13 8 28 18 33 12 8 -15 10 -98 10 -83 0 -110 -2 -97 -10z m131
-219 c30 -85 53 -156 51 -158 -2 -2 -16 5 -32 16 -34 24 -114 52 -148 52 -14
0 -25 2 -25 4 0 2 12 35 26 72 14 38 35 93 46 122 11 29 22 52 24 50 2 -2 28
-73 58 -158z"/>
<path d="M4257 6446 l28 -24 3 -268 c3 -289 -1 -316 -47 -333 -20 -7 -2 -9 74
-10 67 0 93 3 78 9 -41 17 -43 37 -41 311 l3 262 181 -152 c105 -87 184 -160
188 -173 11 -41 6 -182 -7 -208 -7 -13 -24 -30 -37 -37 -22 -11 -12 -13 75
-12 68 0 93 3 78 9 -45 18 -48 38 -48 326 0 288 1 295 50 314 12 6 -18 9 -80
9 -62 0 -92 -3 -80 -9 41 -16 49 -39 53 -142 3 -69 1 -99 -6 -97 -24 8 -262
212 -262 224 0 8 6 16 13 18 6 3 -46 6 -116 6 l-128 1 28 -24z"/>
<path d="M3394 5550 c-82 -26 -175 -89 -211 -142 -43 -62 -56 -109 -51 -194 2
-41 2 -74 1 -74 -1 0 -13 19 -25 43 -33 62 -33 203 1 267 l23 45 -35 -34 c-50
-47 -79 -120 -79 -197 1 -76 25 -130 90 -196 l45 -47 -6 -73 c-3 -40 -14 -99
-25 -131 -23 -64 -21 -76 20 -128 15 -20 28 -46 28 -57 0 -23 -25 -85 -75
-185 -32 -64 -34 -71 -20 -97 8 -15 30 -37 50 -48 28 -17 35 -28 35 -51 0 -17
5 -52 11 -80 10 -49 11 -50 60 -60 28 -6 71 -11 97 -11 l47 1 -28 15 c-15 8
-56 24 -92 35 -65 20 -85 39 -41 39 42 0 231 -59 244 -77 6 -9 12 -35 12 -58
0 -64 -55 -105 -140 -105 -32 0 -43 5 -57 26 -16 26 -16 27 6 46 13 10 22 20
19 23 -2 2 -29 7 -59 11 l-56 6 -12 -59 c-11 -50 -11 -65 2 -95 25 -60 56 -73
167 -72 84 0 109 5 220 42 123 42 342 143 388 180 22 17 27 39 53 223 35 244
47 286 98 332 72 65 153 70 180 11 50 -111 -58 -292 -187 -313 l-37 -6 -14
-90 c-21 -140 -29 -166 -69 -202 -43 -40 -178 -110 -285 -148 -62 -22 -77 -31
-71 -44 14 -34 16 -53 8 -60 -5 -3 -19 -27 -31 -52 -26 -55 -97 -138 -165
-192 l-48 -39 0 -159 0 -160 35 -15 c45 -19 49 -18 25 6 -11 11 -20 32 -20 48
0 15 -3 37 -6 49 -5 19 -2 22 31 25 37 3 38 4 65 78 47 128 100 262 116 292
l15 29 29 -21 c43 -31 45 -38 9 -58 -17 -9 -43 -26 -56 -37 l-24 -20 30 -88
c28 -81 29 -90 15 -122 -8 -19 -14 -37 -14 -40 0 -3 41 -5 91 -5 l92 0 -6 40
c-4 34 -1 45 21 68 15 15 39 43 53 62 l27 35 77 -38 77 -38 -28 -37 c-15 -20
-36 -48 -46 -61 -26 -34 -23 -39 24 -52 58 -15 130 -53 172 -89 l34 -30 76 39
c106 55 197 122 285 210 65 65 171 198 171 215 0 3 -35 32 -77 64 -84 64 -149
130 -202 204 -18 25 -41 48 -50 51 -10 2 -30 33 -47 71 -15 36 -34 66 -41 66
-18 0 -17 106 2 192 7 37 39 131 69 208 31 76 56 144 56 149 0 6 8 18 19 28
25 24 41 105 41 206 1 76 2 80 16 62 8 -11 18 -32 21 -47 11 -54 26 -29 21 35
-7 78 -40 145 -108 221 -29 31 -50 56 -47 56 19 0 96 -35 114 -52 38 -36 26
-4 -18 46 -23 25 -62 58 -87 73 -60 34 -59 33 -42 43 44 27 -155 130 -252 130
-49 0 -21 18 39 26 74 9 53 20 -79 40 -353 54 -644 -94 -739 -376 -6 -17 -8
-4 -5 40 5 84 35 149 102 215 86 84 230 142 399 159 33 4 78 10 100 13 40 7
39 7 -30 19 -207 37 -429 -12 -556 -125 -70 -61 -101 -135 -108 -256 l-6 -100
-15 40 c-8 22 -15 72 -15 110 0 133 79 242 230 316 79 38 80 39 40 38 -22 0
-67 -9 -101 -19z m774 -205 c30 -9 52 -18 50 -20 -1 -1 -51 2 -110 7 -232 22
-410 -43 -587 -215 -50 -49 -62 -57 -56 -37 37 127 201 248 385 284 53 10 266
-2 318 -19z m72 -101 c5 -5 -28 -9 -83 -10 -100 -1 -185 -21 -298 -73 -72 -32
-236 -138 -259 -166 -14 -17 -11 -18 90 -11 58 4 148 14 200 22 140 21 261 1
380 -62 59 -32 130 -86 130 -99 0 -3 -19 7 -42 23 -60 41 -143 70 -251 87
-115 19 -188 19 -301 0 -95 -15 -102 -18 -92 -34 10 -16 72 -29 181 -36 119
-7 220 -27 295 -56 52 -21 100 -51 55 -35 -81 29 -227 51 -390 58 l-70 3 -3
-39 c-3 -36 1 -44 59 -102 56 -57 62 -67 67 -113 10 -108 -30 -191 -128 -265
-34 -25 -59 -46 -56 -46 15 0 82 32 98 47 27 24 31 11 12 -36 -22 -54 -72 -97
-169 -142 -103 -48 -126 -51 -141 -20 -10 20 -38 33 -144 67 -73 23 -137 47
-143 53 -7 7 1 14 24 24 l34 15 -37 16 c-21 9 -44 16 -53 16 -27 0 -85 28 -85
42 0 7 23 60 52 118 65 131 69 169 19 230 l-33 41 21 67 c11 37 23 89 27 115
6 47 7 48 33 40 14 -4 69 -8 121 -8 111 0 145 14 290 121 137 100 241 145 375
162 68 8 201 0 215 -14z m35 -149 c72 -19 145 -58 182 -98 l28 -30 -41 27
c-86 56 -245 96 -387 97 -61 0 -85 3 -72 9 34 15 226 11 290 -5z m-97 -987
c12 -73 22 -143 22 -155 0 -33 -95 -94 -348 -223 l-103 -53 -31 31 c-18 18
-28 36 -25 45 3 8 38 32 77 53 42 22 105 68 150 111 43 40 81 73 84 73 10 0 7
-36 -9 -79 -8 -23 -10 -39 -5 -36 21 13 60 97 105 228 26 75 51 137 54 137 4
0 17 -60 29 -132z m161 -204 c11 -41 9 -50 -13 -97 -23 -46 -167 -258 -237
-348 l-26 -33 -84 59 c-46 32 -104 72 -129 88 -25 17 -49 34 -54 38 -4 4 55
39 133 79 160 81 300 170 350 224 19 20 38 36 42 36 4 0 12 -21 18 -46z"/>
<path d="M3280 4706 c0 -22 38 -58 71 -68 38 -11 51 -31 27 -42 -21 -8 19 -34
64 -41 45 -8 148 2 148 14 0 5 -21 16 -47 25 -91 33 -92 36 -8 32 44 -3 94 -8
110 -11 29 -6 29 -5 -18 39 l-49 46 -118 0 c-64 0 -132 3 -149 6 -17 4 -31 4
-31 0z"/>
<path d="M2899 5043 c-98 -101 -145 -165 -212 -289 -110 -202 -154 -361 -164
-589 -9 -221 32 -401 137 -603 98 -187 222 -331 385 -447 l80 -57 5 59 6 58
-46 39 c-180 156 -329 356 -393 526 -93 251 -92 521 4 782 61 166 142 299 269
438 l77 85 -32 38 c-18 20 -34 37 -37 37 -2 0 -38 -35 -79 -77z"/>
<path d="M4616 5106 c3 -7 -2 -21 -11 -30 -13 -12 -14 -20 -6 -30 6 -7 17 -32
26 -55 8 -23 34 -66 58 -94 81 -97 151 -218 205 -357 153 -392 75 -826 -206
-1143 -98 -111 -267 -240 -379 -289 -26 -11 -49 -22 -51 -23 -6 -5 51 -95 60
-95 18 0 151 71 223 118 89 59 246 215 314 312 101 143 174 315 206 485 30
160 15 446 -31 590 -50 154 -140 329 -226 441 -94 121 -202 223 -182 170z"/>
<path d="M3022 4923 c-174 -202 -281 -419 -313 -633 -16 -114 -7 -322 20 -425
43 -163 143 -332 285 -482 119 -126 116 -126 116 10 l0 113 -40 18 -41 18 3
56 3 57 219 2 220 1 21 44 c12 23 25 55 29 71 8 32 1 33 -75 10 -30 -9 -90
-16 -134 -17 -68 0 -88 4 -132 27 -75 39 -98 76 -97 157 0 36 2 83 4 105 2 22
-1 74 -5 115 -8 71 -10 76 -52 115 -66 61 -67 88 -4 213 28 56 51 111 51 123
0 12 -11 34 -25 51 -29 34 -34 101 -11 164 18 53 29 144 17 144 -5 0 -31 -26
-59 -57z"/>
<path d="M4613 4798 c-12 -29 -28 -78 -37 -108 -8 -31 -37 -103 -64 -160 -84
-179 -114 -268 -119 -350 -5 -69 -3 -79 26 -133 30 -57 147 -202 212 -263 19
-18 61 -51 94 -73 l59 -42 18 33 c10 18 31 76 48 128 72 228 53 516 -48 745
-31 70 -111 207 -144 248 l-24 29 -21 -54z"/>
<path d="M4151 4566 c-30 -31 -32 -37 -26 -77 5 -37 3 -49 -15 -72 -29 -37
-20 -44 27 -21 48 24 69 63 77 142 5 55 4 62 -12 62 -10 0 -33 -15 -51 -34z"/>
<path d="M3110 3589 c0 -3 14 -12 31 -19 62 -26 60 -15 57 -492 -3 -475 -4
-484 -63 -522 -63 -42 -165 -26 -201 30 -18 26 -18 28 0 38 45 26 58 47 52 84
-12 79 -91 111 -144 59 -22 -22 -26 -36 -26 -79 1 -100 62 -176 159 -198 125
-28 244 33 300 155 41 90 45 139 45 519 0 403 -4 382 68 407 18 6 32 14 32 17
0 4 -70 7 -155 8 -85 0 -155 -3 -155 -7z"/>
<path d="M3487 3218 c-13 -8 -6 -11 60 -28 24 -6 47 -19 53 -30 11 -21 12
-559 1 -600 -5 -20 -16 -27 -54 -34 -35 -7 -47 -14 -47 -27 0 -17 13 -18 188
-18 112 1 214 7 255 15 122 24 208 87 262 194 30 60 38 99 37 193 -1 62 -7 91
-27 136 -31 68 -54 94 -120 136 -89 57 -127 64 -373 67 -123 2 -229 0 -235 -4z
m465 -66 c53 -23 90 -60 120 -122 20 -40 23 -61 23 -180 0 -113 -3 -141 -19
-170 -26 -49 -74 -98 -121 -122 -42 -22 -146 -35 -189 -24 l-26 6 0 322 0 321
83 -5 c52 -4 101 -13 129 -26z"/>
<path d="M3885 3089 c-10 -16 0 -21 29 -13 14 3 23 10 20 15 -7 12 -41 11 -49
-2z"/>
<path d="M3975 3030 c-11 -5 -41 -9 -66 -9 -26 -1 -61 -4 -78 -7 -30 -6 -31
-8 -31 -62 l0 -55 78 7 c126 12 147 18 145 47 0 14 -7 39 -15 56 -11 25 -17
29 -33 23z"/>
<path d="M3380 3026 c0 -31 5 -58 13 -63 17 -13 89 -33 121 -33 25 0 26 2 26
54 l0 54 -69 21 c-38 12 -74 21 -80 21 -7 0 -11 -21 -11 -54z"/>
<path d="M4387 2822 c-22 -25 -22 -65 2 -86 22 -20 44 -13 62 20 11 22 11 30
-2 52 -18 33 -40 38 -62 14z"/>
<path d="M4507 2833 c-12 -11 -8 -88 5 -101 29 -29 78 3 78 50 0 40 -58 76
-83 51z"/>
<path d="M2170 2154 c-116 -31 -214 -127 -241 -237 -6 -26 -9 -79 -7 -117 9
-127 77 -223 197 -278 47 -23 70 -27 146 -27 76 0 99 4 147 27 76 35 142 98
175 167 59 119 26 289 -72 380 -53 49 -104 75 -173 90 -68 14 -104 13 -172 -5z
m154 -48 c52 -22 110 -79 139 -140 102 -208 14 -428 -171 -428 -69 0 -99 11
-147 53 -99 87 -140 241 -100 375 16 56 64 116 110 139 38 19 125 19 169 1z"/>
<path d="M4703 2160 c-157 -33 -246 -141 -245 -299 0 -97 28 -173 87 -238 85
-95 186 -123 449 -123 128 0 128 0 105 19 -23 19 -24 25 -27 182 -4 191 0 222
31 237 17 8 -3 11 -88 10 -60 0 -102 -2 -92 -5 36 -9 47 -55 47 -197 0 -74 -4
-146 -9 -159 -33 -85 -243 -42 -321 64 -74 103 -94 258 -45 356 38 75 89 107
181 111 93 5 136 -10 191 -65 l44 -43 -7 37 c-20 114 -16 107 -59 108 -22 1
-76 4 -120 7 -44 4 -99 3 -122 -2z"/>
<path d="M6610 2161 c-86 -28 -130 -79 -130 -150 0 -50 20 -92 54 -114 14 -10
88 -37 165 -62 172 -56 201 -79 201 -157 0 -43 -4 -54 -33 -83 -41 -41 -103
-59 -178 -52 -87 8 -156 52 -212 137 -21 31 -21 30 3 -77 l21 -88 47 -1 c26 0
80 -6 120 -14 174 -34 310 47 320 190 6 76 -1 102 -40 145 -40 46 -79 65 -207
104 -133 39 -165 58 -169 97 -5 49 34 77 113 82 56 4 73 0 121 -23 35 -17 67
-43 86 -69 17 -22 29 -34 26 -26 -3 8 -11 47 -18 85 l-12 70 -57 1 c-31 1 -87
4 -126 7 -38 4 -81 3 -95 -2z"/>
<path d="M6097 2153 l-217 -3 17 -27 c16 -24 18 -56 18 -299 0 -288 -1 -295
-50 -315 -11 -4 91 -7 234 -6 l254 2 28 83 c16 46 31 93 35 105 4 11 -13 -4
-38 -34 -65 -79 -136 -113 -240 -114 -117 0 -118 1 -118 217 l0 171 68 -5 c78
-6 115 -22 142 -64 11 -16 20 -24 19 -19 -1 30 -37 187 -38 168 -2 -32 -30
-43 -115 -43 l-76 0 0 54 c0 63 14 82 64 92 38 7 137 -11 178 -32 15 -8 44
-30 63 -50 19 -19 35 -31 35 -26 0 24 -33 152 -39 150 -3 -2 -104 -4 -224 -5z"/>
<path d="M1236 2143 c30 -22 34 -56 34 -318 0 -277 -3 -299 -43 -315 -30 -12
257 -12 350 0 115 15 183 61 234 160 20 37 24 60 24 135 0 78 -4 97 -28 146
-32 67 -109 142 -175 172 -42 20 -67 22 -227 25 -99 1 -175 -1 -169 -5z m349
-62 c152 -85 195 -353 76 -472 -66 -67 -205 -91 -258 -45 l-28 24 0 247 0 247
25 20 c21 17 34 19 80 14 31 -4 76 -19 105 -35z"/>
<path d="M2730 2130 c19 -19 20 -33 20 -296 0 -176 -4 -283 -11 -295 -6 -11
-20 -24 -32 -29 -15 -6 11 -9 78 -9 76 1 94 3 74 10 -46 17 -50 43 -47 324 l3
260 99 -172 c54 -95 102 -171 106 -168 4 3 54 80 111 172 l104 168 3 -261 c1
-158 -2 -272 -8 -288 -5 -15 -20 -31 -32 -36 -16 -6 15 -9 97 -9 103 -1 116 1
95 12 -48 24 -50 42 -48 328 3 246 4 269 22 288 l19 21 -96 0 c-94 0 -97 -1
-97 -22 0 -21 -128 -248 -140 -248 -11 0 -130 229 -130 249 0 20 -5 21 -105
21 l-105 0 20 -20z"/>
<path d="M3516 2129 c18 -19 19 -42 22 -287 3 -287 -1 -314 -47 -331 -19 -7 6
-10 99 -10 107 -1 121 1 100 12 -48 24 -50 42 -48 328 3 246 4 269 22 288 l19
21 -93 0 -93 0 19 -21z"/>
<path d="M3810 2130 c19 -19 20 -33 20 -296 0 -176 -4 -283 -11 -295 -6 -11
-20 -24 -32 -29 -15 -6 11 -9 78 -9 77 1 94 3 73 10 -16 6 -31 22 -37 41 -11
31 -16 528 -6 528 13 0 363 -300 369 -315 10 -28 7 -193 -5 -219 -7 -14 -24
-30 -38 -35 -20 -7 -1 -10 74 -10 89 0 97 1 76 13 -14 8 -28 22 -32 32 -4 11
-8 142 -8 292 -1 259 0 273 19 292 l20 20 -71 0 -70 0 20 -26 c18 -23 21 -41
21 -120 0 -52 -3 -94 -6 -94 -8 0 -235 188 -251 208 -7 8 -10 19 -7 23 3 5
-45 9 -105 9 l-111 0 20 -20z"/>
<path d="M5236 2125 c14 -21 15 -53 9 -262 l-7 -238 24 -35 c34 -50 78 -76
154 -90 126 -24 250 14 302 93 l27 41 -3 234 c-2 199 -1 238 13 258 l15 24
-66 0 c-66 0 -67 0 -49 -20 22 -24 33 -129 36 -330 3 -176 -5 -199 -84 -236
-85 -39 -181 -28 -234 28 -26 27 -28 36 -31 126 -5 154 12 377 32 407 l16 25
-85 0 -85 0 16 -25z"/>
</g>
</svg>
