<?xml version="1.0" encoding="UTF-8"?>
<svg xmlns="http://www.w3.org/2000/svg" xmlns:xlink="http://www.w3.org/1999/xlink" width="500px" height="500px" viewBox="0 0 500 500" version="1.1">
<g id="surface1">
<path style=" stroke:none;fill-rule:nonzero;fill:rgb(0%,0%,0%);fill-opacity:1;" d="M 166.328125 106.09375 C 167.070312 106.40625 167.96875 107.382812 168.28125 108.242188 C 168.671875 109.140625 168.90625 115.976562 168.90625 123.554688 C 168.90625 138.398438 168.554688 140.46875 165.625 142.382812 C 163.671875 143.671875 158.945312 143.710938 156.953125 142.382812 C 154.101562 140.546875 152.929688 137.851562 153.242188 133.945312 L 153.554688 130.429688 L 150.625 135.195312 L 147.695312 139.921875 L 148.945312 141.328125 C 150.742188 143.28125 155.859375 145.664062 159.257812 146.09375 C 163.164062 146.640625 167.96875 145.351562 170.546875 143.125 C 174.53125 139.648438 174.648438 139.023438 175 123.125 C 175.3125 107.929688 175.429688 107.265625 178.359375 106.09375 C 179.101562 105.78125 176.71875 105.546875 172.265625 105.546875 C 167.265625 105.546875 165.351562 105.742188 166.328125 106.09375 Z M 166.328125 106.09375 "/>
<path style=" stroke:none;fill-rule:nonzero;fill:rgb(0%,0%,0%);fill-opacity:1;" d="M 182.734375 106.09375 C 183.476562 106.40625 184.335938 107.1875 184.6875 107.851562 C 185.117188 108.59375 185.351562 115.078125 185.351562 125.625 C 185.351562 136.171875 185.117188 142.617188 184.6875 143.359375 C 184.335938 144.023438 183.476562 144.804688 182.734375 145.117188 C 181.875 145.429688 187.382812 145.625 196.875 145.546875 L 212.382812 145.429688 L 214.101562 140.351562 C 215.078125 137.578125 215.976562 134.6875 216.210938 133.945312 C 216.445312 133.164062 215.664062 133.828125 214.453125 135.429688 C 210.3125 140.78125 203.476562 143.828125 197.148438 143.125 C 192.265625 142.578125 192.070312 142.148438 192.070312 130.078125 L 192.070312 119.53125 L 195.429688 119.53125 C 199.765625 119.53125 203.28125 120.976562 204.882812 123.359375 L 206.09375 125.3125 L 205.78125 123.476562 C 203.90625 113.125 203.90625 113.125 203.476562 114.6875 C 202.96875 116.640625 201.71875 117.070312 196.210938 117.070312 L 192.070312 117.070312 L 192.070312 113.828125 C 192.070312 108.945312 192.851562 108.242188 198.28125 108.28125 C 203.671875 108.359375 207.695312 109.921875 210.742188 113.164062 C 213.125 115.664062 213.125 115.625 211.835938 109.804688 L 210.859375 105.46875 L 196.09375 105.546875 C 187.03125 105.546875 181.875 105.78125 182.734375 106.09375 Z M 182.734375 106.09375 "/>
<path style=" stroke:none;fill-rule:nonzero;fill:rgb(0%,0%,0%);fill-opacity:1;" d="M 231.289062 106.171875 C 231.835938 106.445312 232.304688 107.421875 232.304688 108.242188 C 232.304688 109.921875 220.664062 140.78125 219.257812 142.8125 C 218.710938 143.554688 217.695312 144.53125 216.953125 144.921875 C 215.742188 145.546875 216.445312 145.664062 221.640625 145.664062 C 226.523438 145.664062 227.421875 145.46875 226.328125 145 C 223.945312 143.828125 223.945312 141.71875 226.523438 134.257812 L 228.90625 127.421875 L 231.40625 127.421875 C 234.6875 127.421875 240.976562 130.546875 242.96875 133.164062 C 244.882812 135.664062 246.328125 139.140625 246.328125 141.171875 C 246.328125 142.03125 245.664062 143.398438 244.804688 144.21875 L 243.359375 145.742188 L 250.195312 145.664062 C 255.429688 145.664062 256.71875 145.46875 255.664062 145 C 254.921875 144.648438 254.140625 143.90625 253.945312 143.359375 C 251.640625 137.695312 242.070312 109.257812 242.070312 108.164062 C 242.070312 107.382812 242.578125 106.445312 243.164062 106.171875 C 243.90625 105.664062 242.265625 105.546875 237.1875 105.546875 C 232.148438 105.546875 230.46875 105.664062 231.289062 106.171875 Z M 239.257812 119.53125 C 241.09375 124.6875 242.5 129.023438 242.382812 129.140625 C 242.265625 129.257812 241.40625 128.828125 240.429688 128.164062 C 238.359375 126.71875 233.476562 125 231.40625 125 C 230.546875 125 229.882812 124.882812 229.882812 124.765625 C 229.882812 124.648438 230.625 122.617188 231.445312 120.351562 C 232.304688 118.046875 233.59375 114.6875 234.257812 112.929688 C 234.921875 111.171875 235.625 109.765625 235.742188 109.882812 C 235.859375 110 237.421875 114.335938 239.257812 119.53125 Z M 239.257812 119.53125 "/>
<path style=" stroke:none;fill-rule:nonzero;fill:rgb(0%,0%,0%);fill-opacity:1;" d="M 259.570312 106.953125 L 261.289062 108.398438 L 261.445312 124.765625 C 261.640625 142.382812 261.40625 144.023438 258.59375 145.078125 C 257.382812 145.46875 258.476562 145.625 263.125 145.664062 C 267.1875 145.664062 268.789062 145.46875 267.851562 145.117188 C 265.351562 144.101562 265.234375 142.851562 265.351562 126.171875 L 265.546875 110.195312 L 276.601562 119.453125 C 282.96875 124.765625 287.8125 129.21875 288.046875 130 C 288.710938 132.5 288.398438 141.09375 287.617188 142.695312 C 287.1875 143.476562 286.171875 144.53125 285.351562 144.921875 C 284.023438 145.625 284.648438 145.742188 289.921875 145.664062 C 294.101562 145.664062 295.625 145.46875 294.6875 145.117188 C 291.953125 144.023438 291.757812 142.8125 291.757812 125.234375 C 291.757812 107.695312 291.835938 107.265625 294.804688 106.09375 C 295.546875 105.742188 293.710938 105.546875 289.921875 105.546875 C 286.171875 105.546875 284.335938 105.742188 285.078125 106.09375 C 287.578125 107.070312 288.046875 108.476562 288.28125 114.765625 C 288.476562 118.945312 288.359375 120.78125 287.929688 120.664062 C 286.445312 120.195312 271.953125 107.734375 271.953125 107.03125 C 271.953125 106.523438 272.304688 106.054688 272.734375 105.898438 C 273.125 105.742188 269.921875 105.546875 265.664062 105.546875 L 257.851562 105.46875 Z M 259.570312 106.953125 "/>
<path style=" stroke:none;fill-rule:nonzero;fill:rgb(0%,0%,0%);fill-opacity:1;" d="M 206.953125 161.601562 C 201.953125 163.164062 196.289062 167.03125 194.101562 170.234375 C 191.445312 174.023438 190.664062 176.875 190.976562 182.070312 C 191.09375 184.570312 191.09375 186.601562 191.054688 186.601562 C 190.976562 186.601562 190.234375 185.429688 189.53125 183.945312 C 187.5 180.195312 187.5 171.601562 189.570312 167.695312 L 190.976562 164.921875 L 188.828125 167.03125 C 185.78125 169.882812 184.023438 174.335938 184.023438 179.023438 C 184.101562 183.671875 185.546875 186.953125 189.53125 190.976562 L 192.265625 193.828125 L 191.875 198.28125 C 191.71875 200.742188 191.054688 204.335938 190.351562 206.289062 C 188.945312 210.195312 189.101562 210.898438 191.601562 214.101562 C 192.5 215.3125 193.28125 216.875 193.28125 217.578125 C 193.28125 218.945312 191.757812 222.734375 188.710938 228.828125 C 186.757812 232.734375 186.640625 233.164062 187.5 234.765625 C 187.96875 235.664062 189.335938 237.03125 190.546875 237.695312 C 192.265625 238.710938 192.695312 239.375 192.695312 240.78125 C 192.695312 241.835938 192.96875 243.945312 193.359375 245.664062 C 193.945312 248.671875 194.023438 248.710938 197.03125 249.335938 C 198.710938 249.6875 201.328125 250 202.929688 250 L 205.78125 249.921875 L 204.101562 249.023438 C 203.164062 248.554688 200.664062 247.578125 198.476562 246.875 C 194.53125 245.664062 193.28125 244.53125 195.976562 244.53125 C 198.554688 244.53125 210.078125 248.125 210.859375 249.21875 C 211.210938 249.765625 211.601562 251.328125 211.601562 252.734375 C 211.601562 256.640625 208.242188 259.140625 203.046875 259.140625 C 201.09375 259.140625 200.429688 258.828125 199.570312 257.578125 C 198.59375 255.976562 198.59375 255.898438 199.921875 254.765625 C 200.742188 254.140625 201.289062 253.554688 201.09375 253.359375 C 200.976562 253.242188 199.335938 252.929688 197.5 252.695312 L 194.101562 252.304688 L 193.359375 255.898438 C 192.695312 258.945312 192.695312 259.882812 193.476562 261.71875 C 195 265.351562 196.875 266.171875 203.671875 266.09375 C 208.789062 266.09375 210.3125 265.78125 217.070312 263.554688 C 224.570312 260.976562 237.929688 254.804688 240.742188 252.578125 C 242.070312 251.523438 242.382812 250.195312 243.945312 238.945312 C 246.09375 224.101562 246.835938 221.523438 249.921875 218.710938 C 254.335938 214.765625 259.257812 214.453125 260.898438 218.046875 C 263.945312 224.804688 257.382812 235.859375 249.53125 237.148438 L 247.265625 237.5 L 246.40625 242.96875 C 245.117188 251.523438 244.648438 253.125 242.1875 255.3125 C 239.570312 257.734375 231.328125 262.03125 224.804688 264.335938 C 221.054688 265.664062 220.117188 266.210938 220.46875 267.03125 C 221.328125 269.101562 221.445312 270.234375 220.976562 270.664062 C 220.664062 270.859375 219.804688 272.304688 219.101562 273.828125 C 217.5 277.1875 213.164062 282.265625 209.023438 285.546875 L 206.09375 287.929688 L 206.09375 307.382812 L 208.242188 308.28125 C 210.976562 309.453125 211.210938 309.375 209.765625 307.929688 C 209.101562 307.265625 208.554688 305.976562 208.554688 305 C 208.554688 304.101562 208.359375 302.734375 208.164062 302.03125 C 207.851562 300.859375 208.046875 300.664062 210.078125 300.46875 C 212.304688 300.3125 212.382812 300.234375 214.023438 295.742188 C 216.875 287.929688 220.117188 279.765625 221.09375 277.929688 L 222.03125 276.171875 L 223.789062 277.421875 C 226.40625 279.335938 226.523438 279.765625 224.335938 280.976562 C 223.28125 281.523438 221.71875 282.578125 220.898438 283.242188 L 219.453125 284.453125 L 221.289062 289.804688 C 222.96875 294.765625 223.046875 295.3125 222.1875 297.265625 C 221.71875 298.398438 221.328125 299.53125 221.328125 299.6875 C 221.328125 299.882812 223.828125 300 226.875 300 L 232.5 300 L 232.148438 297.578125 C 231.875 295.46875 232.070312 294.804688 233.398438 293.398438 C 234.335938 292.5 235.78125 290.78125 236.640625 289.648438 L 238.28125 287.5 L 242.96875 289.804688 L 247.695312 292.148438 L 245.976562 294.375 C 245.078125 295.625 243.789062 297.304688 243.164062 298.125 C 241.601562 300.195312 241.757812 300.46875 244.648438 301.289062 C 248.164062 302.1875 252.578125 304.53125 255.117188 306.71875 L 257.1875 308.554688 L 261.835938 306.171875 C 268.28125 302.8125 273.828125 298.710938 279.21875 293.359375 C 283.164062 289.375 289.648438 281.289062 289.648438 280.234375 C 289.648438 280.078125 287.5 278.28125 284.921875 276.328125 C 279.804688 272.421875 275.859375 268.398438 272.617188 263.90625 C 271.523438 262.382812 270.117188 260.976562 269.570312 260.78125 C 268.945312 260.664062 267.734375 258.789062 266.71875 256.445312 C 265.78125 254.257812 264.648438 252.421875 264.21875 252.421875 C 263.125 252.421875 263.164062 245.976562 264.335938 240.742188 C 264.765625 238.476562 266.71875 232.734375 268.554688 228.046875 C 270.429688 223.398438 271.953125 219.257812 271.953125 218.945312 C 271.953125 218.59375 272.421875 217.851562 273.125 217.265625 C 274.648438 215.78125 275.625 210.859375 275.625 204.6875 C 275.664062 200.078125 275.742188 199.804688 276.601562 200.898438 C 277.070312 201.601562 277.695312 202.851562 277.851562 203.789062 C 278.554688 207.070312 279.453125 205.546875 279.140625 201.640625 C 278.710938 196.875 276.71875 192.8125 272.578125 188.164062 C 270.78125 186.289062 269.53125 184.765625 269.6875 184.765625 C 270.859375 184.765625 275.546875 186.875 276.640625 187.929688 C 278.945312 190.117188 278.242188 188.164062 275.546875 185.117188 C 274.140625 183.59375 271.757812 181.601562 270.234375 180.664062 C 266.601562 178.59375 266.640625 178.671875 267.695312 178.046875 C 270.351562 176.40625 258.242188 170.117188 252.304688 170.117188 C 249.335938 170.117188 251.054688 169.023438 254.6875 168.554688 C 259.21875 167.96875 257.929688 167.304688 249.882812 166.09375 C 228.359375 162.8125 210.625 171.835938 204.804688 189.023438 C 204.453125 190.078125 204.335938 189.257812 204.53125 186.601562 C 204.804688 181.445312 206.640625 177.5 210.742188 173.476562 C 215.976562 168.359375 224.765625 164.804688 235.078125 163.789062 C 237.070312 163.554688 239.804688 163.164062 241.171875 162.96875 C 243.59375 162.578125 243.554688 162.578125 239.335938 161.835938 C 226.71875 159.570312 213.164062 162.578125 205.429688 169.453125 C 201.171875 173.164062 199.257812 177.695312 198.828125 185.078125 L 198.476562 191.171875 L 197.578125 188.710938 C 197.070312 187.382812 196.640625 184.335938 196.640625 182.03125 C 196.640625 173.90625 201.445312 167.265625 210.664062 162.734375 C 215.46875 160.429688 215.546875 160.351562 213.125 160.429688 C 211.757812 160.429688 209.023438 160.976562 206.953125 161.601562 Z M 254.140625 174.101562 C 255.976562 174.648438 257.304688 175.195312 257.1875 175.3125 C 257.148438 175.351562 254.101562 175.195312 250.46875 174.882812 C 236.328125 173.554688 225.46875 177.5 214.6875 187.96875 C 211.640625 190.976562 210.898438 191.445312 211.289062 190.234375 C 213.554688 182.5 223.554688 175.117188 234.765625 172.929688 C 237.96875 172.304688 250.976562 173.046875 254.140625 174.101562 Z M 258.554688 180.234375 C 258.828125 180.546875 256.835938 180.78125 253.476562 180.859375 C 247.382812 180.898438 242.1875 182.148438 235.3125 185.3125 C 230.898438 187.265625 220.898438 193.710938 219.53125 195.429688 C 218.671875 196.445312 218.828125 196.523438 225 196.09375 C 228.554688 195.859375 234.023438 195.234375 237.1875 194.765625 C 245.742188 193.476562 253.125 194.6875 260.351562 198.554688 C 263.945312 200.46875 268.28125 203.789062 268.28125 204.570312 C 268.28125 204.765625 267.148438 204.140625 265.742188 203.164062 C 262.070312 200.664062 257.03125 198.90625 250.429688 197.851562 C 243.398438 196.71875 238.945312 196.71875 232.070312 197.851562 C 226.289062 198.789062 225.859375 198.945312 226.445312 199.921875 C 227.070312 200.898438 230.859375 201.71875 237.5 202.148438 C 244.765625 202.578125 250.898438 203.789062 255.46875 205.546875 C 258.671875 206.835938 261.601562 208.671875 258.828125 207.695312 C 253.90625 205.898438 245 204.570312 235.078125 204.140625 L 230.78125 203.945312 L 230.625 206.328125 C 230.429688 208.554688 230.664062 209.023438 234.21875 212.578125 C 237.617188 216.054688 237.96875 216.640625 238.28125 219.453125 C 238.90625 226.054688 236.445312 231.09375 230.46875 235.625 C 228.398438 237.148438 226.875 238.398438 227.070312 238.398438 C 227.96875 238.398438 232.070312 236.445312 233.046875 235.546875 C 234.6875 234.101562 234.921875 234.882812 233.789062 237.734375 C 232.421875 241.054688 229.375 243.671875 223.476562 246.40625 C 217.1875 249.335938 215.78125 249.53125 214.882812 247.617188 C 214.257812 246.40625 212.578125 245.625 206.09375 243.554688 C 201.640625 242.148438 197.734375 240.664062 197.382812 240.3125 C 196.953125 239.882812 197.421875 239.453125 198.828125 238.828125 L 200.898438 237.929688 L 198.671875 236.953125 C 197.382812 236.40625 195.976562 235.976562 195.429688 235.976562 C 193.789062 235.976562 190.234375 234.257812 190.234375 233.398438 C 190.234375 232.96875 191.640625 229.765625 193.398438 226.210938 C 197.382812 218.242188 197.617188 215.898438 194.570312 212.1875 L 192.578125 209.6875 L 193.828125 205.625 C 194.53125 203.359375 195.234375 200.195312 195.46875 198.59375 C 195.859375 195.742188 195.898438 195.664062 197.5 196.171875 C 198.359375 196.40625 201.71875 196.640625 204.882812 196.640625 C 211.640625 196.640625 213.710938 195.78125 222.578125 189.257812 C 230.898438 183.164062 237.265625 180.429688 245.429688 179.375 C 249.570312 178.90625 257.695312 179.375 258.554688 180.234375 Z M 260.664062 189.335938 C 265.078125 190.46875 269.53125 192.851562 271.757812 195.3125 L 273.476562 197.148438 L 270.976562 195.46875 C 265.742188 192.070312 256.054688 189.648438 247.382812 189.570312 C 243.671875 189.570312 242.1875 189.375 242.96875 189.023438 C 245.078125 188.125 256.757812 188.359375 260.664062 189.335938 Z M 254.765625 249.53125 C 255.46875 253.945312 256.09375 258.242188 256.09375 258.945312 C 256.09375 260.976562 250.3125 264.6875 234.882812 272.578125 L 228.59375 275.78125 L 226.71875 273.90625 C 225.625 272.8125 225 271.71875 225.195312 271.171875 C 225.351562 270.664062 227.5 269.21875 229.882812 267.929688 C 232.421875 266.601562 236.289062 263.789062 239.023438 261.171875 C 241.640625 258.710938 243.945312 256.71875 244.140625 256.71875 C 244.765625 256.71875 244.570312 258.90625 243.59375 261.523438 C 243.125 262.929688 242.96875 263.90625 243.28125 263.710938 C 244.570312 262.929688 246.953125 257.8125 249.6875 249.804688 C 251.289062 245.234375 252.8125 241.445312 252.96875 241.445312 C 253.242188 241.445312 254.023438 245.117188 254.765625 249.53125 Z M 264.570312 261.953125 C 265.234375 264.453125 265.117188 265 263.789062 267.851562 C 262.382812 270.664062 253.59375 283.59375 249.335938 289.101562 L 247.734375 291.09375 L 242.617188 287.5 C 239.804688 285.546875 236.289062 283.125 234.765625 282.148438 C 233.242188 281.09375 231.757812 280.078125 231.445312 279.804688 C 231.210938 279.570312 234.804688 277.421875 239.570312 275 C 249.335938 270.078125 257.851562 264.648438 260.898438 261.328125 C 262.070312 260.117188 263.242188 259.140625 263.476562 259.140625 C 263.710938 259.140625 264.21875 260.429688 264.570312 261.953125 Z M 264.570312 261.953125 "/>
<path style=" stroke:none;fill-rule:nonzero;fill:rgb(0%,0%,0%);fill-opacity:1;" d="M 200 213.046875 C 200 214.375 202.304688 216.601562 204.335938 217.1875 C 206.640625 217.851562 207.421875 219.101562 205.976562 219.765625 C 204.6875 220.234375 207.148438 221.835938 209.882812 222.265625 C 212.617188 222.734375 218.90625 222.148438 218.90625 221.40625 C 218.90625 221.09375 217.617188 220.429688 216.054688 219.882812 C 210.46875 217.851562 210.429688 217.695312 215.546875 217.929688 C 218.242188 218.125 221.289062 218.398438 222.265625 218.59375 C 224.023438 218.945312 224.023438 218.90625 221.171875 216.210938 L 218.164062 213.398438 L 210.976562 213.398438 C 207.070312 213.398438 202.929688 213.242188 201.875 213.046875 C 200.859375 212.8125 200 212.8125 200 213.046875 Z M 200 213.046875 "/>
<path style=" stroke:none;fill-rule:nonzero;fill:rgb(0%,0%,0%);fill-opacity:1;" d="M 176.757812 192.5 C 170.78125 198.671875 167.929688 202.578125 163.828125 210.117188 C 157.148438 222.421875 154.453125 232.148438 153.828125 246.054688 C 153.28125 259.53125 155.78125 270.46875 162.1875 282.8125 C 168.164062 294.21875 175.742188 302.96875 185.664062 310.078125 L 190.546875 313.554688 L 190.859375 309.921875 L 191.210938 306.40625 L 188.398438 304.023438 C 177.421875 294.53125 168.359375 282.304688 164.453125 271.953125 C 158.789062 256.640625 158.828125 240.195312 164.6875 224.257812 C 168.398438 214.140625 173.359375 206.054688 181.09375 197.578125 L 185.78125 192.382812 L 183.828125 190.078125 C 182.734375 188.828125 181.757812 187.8125 181.601562 187.8125 C 181.445312 187.8125 179.257812 189.921875 176.757812 192.5 Z M 176.757812 192.5 "/>
<path style=" stroke:none;fill-rule:nonzero;fill:rgb(0%,0%,0%);fill-opacity:1;" d="M 281.445312 188.671875 C 281.640625 189.101562 281.328125 189.921875 280.78125 190.46875 C 280 191.210938 279.921875 191.71875 280.429688 192.304688 C 280.78125 192.734375 281.445312 194.257812 282.03125 195.664062 C 282.5 197.070312 284.101562 199.6875 285.546875 201.40625 C 290.46875 207.304688 294.765625 214.6875 298.046875 223.164062 C 307.382812 247.070312 302.617188 273.554688 285.46875 292.851562 C 279.53125 299.648438 269.21875 307.5 262.382812 310.46875 C 260.78125 311.171875 259.375 311.835938 259.257812 311.875 C 258.90625 312.1875 262.382812 317.695312 262.929688 317.695312 C 264.023438 317.695312 272.148438 313.359375 276.523438 310.46875 C 281.953125 306.875 291.523438 297.382812 295.664062 291.445312 C 301.835938 282.734375 306.289062 272.265625 308.242188 261.875 C 310.078125 252.148438 309.140625 234.6875 306.328125 225.898438 C 303.28125 216.523438 297.8125 205.859375 292.578125 199.023438 C 286.835938 191.640625 280.234375 185.429688 281.445312 188.671875 Z M 281.445312 188.671875 "/>
<path style=" stroke:none;fill-rule:nonzero;fill:rgb(0%,0%,0%);fill-opacity:1;" d="M 184.257812 199.804688 C 173.671875 212.148438 167.148438 225.351562 165.195312 238.398438 C 164.21875 245.351562 164.765625 258.046875 166.40625 264.335938 C 169.023438 274.257812 175.117188 284.570312 183.789062 293.710938 C 191.054688 301.40625 190.859375 301.40625 190.859375 293.125 L 190.859375 286.210938 L 188.398438 285.117188 L 185.898438 284.023438 L 186.09375 280.625 L 186.289062 277.148438 L 199.648438 277.03125 L 213.046875 276.953125 L 214.335938 274.257812 C 215.078125 272.851562 215.859375 270.898438 216.09375 269.921875 C 216.601562 267.96875 216.171875 267.929688 211.523438 269.335938 C 209.6875 269.882812 206.054688 270.3125 203.359375 270.351562 C 199.21875 270.351562 197.96875 270.117188 195.3125 268.710938 C 190.742188 266.328125 189.335938 264.101562 189.375 259.140625 C 189.375 256.953125 189.53125 254.101562 189.648438 252.734375 C 189.765625 251.40625 189.570312 248.242188 189.335938 245.742188 C 188.828125 241.40625 188.710938 241.09375 186.171875 238.710938 C 182.148438 235 182.070312 233.359375 185.898438 225.742188 C 187.617188 222.304688 189.023438 218.945312 189.023438 218.242188 C 189.023438 217.5 188.359375 216.171875 187.5 215.117188 C 185.742188 213.046875 185.429688 208.945312 186.835938 205.117188 C 187.929688 201.875 188.59375 196.328125 187.851562 196.328125 C 187.578125 196.328125 185.976562 197.929688 184.257812 199.804688 Z M 184.257812 199.804688 "/>
<path style=" stroke:none;fill-rule:nonzero;fill:rgb(0%,0%,0%);fill-opacity:1;" d="M 281.289062 207.421875 C 280.546875 209.21875 279.570312 212.1875 279.023438 214.023438 C 278.554688 215.898438 276.757812 220.3125 275.117188 223.789062 C 270 234.6875 268.164062 240.117188 267.851562 245.117188 C 267.578125 249.335938 267.695312 249.921875 269.453125 253.242188 C 271.289062 256.71875 278.398438 265.546875 282.382812 269.257812 C 283.554688 270.351562 286.09375 272.382812 288.125 273.710938 L 291.71875 276.289062 L 292.8125 274.257812 C 293.398438 273.164062 294.6875 269.648438 295.742188 266.445312 C 300.117188 252.578125 298.945312 235 292.8125 221.054688 C 290.898438 216.757812 286.054688 208.398438 284.023438 205.898438 L 282.578125 204.140625 Z M 281.289062 207.421875 "/>
<path style=" stroke:none;fill-rule:nonzero;fill:rgb(0%,0%,0%);fill-opacity:1;" d="M 253.125 221.601562 C 251.289062 223.476562 251.171875 223.828125 251.523438 226.289062 C 251.835938 228.554688 251.71875 229.257812 250.625 230.664062 C 248.828125 232.929688 249.375 233.359375 252.265625 231.953125 C 255.195312 230.46875 256.445312 228.125 256.953125 223.28125 C 257.265625 219.921875 257.1875 219.53125 256.210938 219.53125 C 255.625 219.53125 254.21875 220.429688 253.125 221.601562 Z M 253.125 221.601562 "/>
<path style=" stroke:none;fill-rule:nonzero;fill:rgb(0%,0%,0%);fill-opacity:1;" d="M 189.648438 281.171875 C 189.648438 281.328125 190.46875 281.875 191.523438 282.304688 C 195.3125 283.90625 195.195312 283.242188 195 312.304688 C 194.804688 341.289062 194.765625 341.835938 191.171875 344.140625 C 187.304688 346.71875 181.09375 345.742188 178.90625 342.304688 C 177.8125 340.742188 177.8125 340.625 178.90625 340 C 181.640625 338.398438 182.421875 337.148438 182.070312 334.882812 C 181.328125 330.078125 176.523438 328.125 173.28125 331.289062 C 171.953125 332.617188 171.71875 333.476562 171.71875 336.09375 C 171.757812 342.1875 175.46875 346.835938 181.40625 348.164062 C 189.023438 349.882812 196.289062 346.171875 199.6875 338.710938 C 202.1875 333.242188 202.421875 330.234375 202.421875 307.070312 C 202.421875 282.5 202.1875 283.789062 206.601562 282.265625 C 207.695312 281.875 208.554688 281.40625 208.554688 281.210938 C 208.554688 280.976562 204.257812 280.78125 199.101562 280.742188 C 193.90625 280.742188 189.648438 280.898438 189.648438 281.171875 Z M 189.648438 281.171875 "/>
<path style=" stroke:none;fill-rule:nonzero;fill:rgb(0%,0%,0%);fill-opacity:1;" d="M 212.617188 303.789062 C 211.835938 304.257812 212.265625 304.453125 216.289062 305.46875 C 217.734375 305.859375 219.140625 306.640625 219.53125 307.304688 C 220.195312 308.59375 220.234375 341.40625 219.570312 343.90625 C 219.257812 345.117188 218.59375 345.546875 216.289062 345.976562 C 214.140625 346.40625 213.398438 346.835938 213.398438 347.617188 C 213.398438 348.671875 214.21875 348.710938 224.882812 348.710938 C 231.71875 348.671875 237.929688 348.28125 240.429688 347.8125 C 247.851562 346.328125 253.125 342.5 256.40625 335.976562 C 258.242188 332.304688 258.710938 329.921875 258.671875 324.21875 C 258.59375 320.429688 258.242188 318.671875 257.03125 315.898438 C 255.117188 311.757812 253.710938 310.195312 249.6875 307.617188 C 244.257812 304.140625 241.953125 303.710938 226.953125 303.554688 C 219.453125 303.398438 212.96875 303.554688 212.617188 303.789062 Z M 240.976562 307.8125 C 244.21875 309.21875 246.445312 311.445312 248.28125 315.234375 C 249.53125 317.695312 249.6875 318.945312 249.6875 326.210938 C 249.6875 333.125 249.53125 334.804688 248.554688 336.601562 C 246.953125 339.570312 244.023438 342.578125 241.171875 344.023438 C 238.59375 345.351562 232.265625 346.171875 229.648438 345.46875 L 228.046875 345.117188 L 228.046875 305.898438 L 233.125 306.210938 C 236.289062 306.445312 239.257812 307.03125 240.976562 307.8125 Z M 240.976562 307.8125 "/>
<path style=" stroke:none;fill-rule:nonzero;fill:rgb(0%,0%,0%);fill-opacity:1;" d="M 236.875 311.640625 C 236.289062 312.617188 236.875 312.929688 238.671875 312.421875 C 239.53125 312.265625 240.078125 311.835938 239.882812 311.523438 C 239.453125 310.78125 237.382812 310.859375 236.875 311.640625 Z M 236.875 311.640625 "/>
<path style=" stroke:none;fill-rule:nonzero;fill:rgb(0%,0%,0%);fill-opacity:1;" d="M 242.382812 315.234375 C 241.71875 315.546875 239.882812 315.78125 238.359375 315.78125 C 236.757812 315.859375 234.648438 316.054688 233.59375 316.210938 C 231.757812 316.601562 231.71875 316.71875 231.71875 320 L 231.71875 323.359375 L 236.445312 322.929688 C 244.140625 322.1875 245.429688 321.835938 245.3125 320.078125 C 245.3125 319.21875 244.882812 317.695312 244.375 316.640625 C 243.710938 315.117188 243.359375 314.882812 242.382812 315.234375 Z M 242.382812 315.234375 "/>
<path style=" stroke:none;fill-rule:nonzero;fill:rgb(0%,0%,0%);fill-opacity:1;" d="M 206.09375 315.46875 C 206.09375 317.382812 206.40625 319.023438 206.875 319.335938 C 207.929688 320.117188 212.304688 321.328125 214.257812 321.328125 C 215.78125 321.328125 215.859375 321.210938 215.859375 318.046875 L 215.859375 314.765625 L 211.640625 313.476562 C 209.335938 312.734375 207.148438 312.1875 206.757812 312.1875 C 206.328125 312.1875 206.09375 313.476562 206.09375 315.46875 Z M 206.09375 315.46875 "/>
<path style=" stroke:none;fill-rule:nonzero;fill:rgb(0%,0%,0%);fill-opacity:1;" d="M 267.5 327.929688 C 266.171875 329.453125 266.171875 331.875 267.617188 333.164062 C 268.945312 334.375 270.3125 333.945312 271.40625 331.953125 C 272.070312 330.625 272.070312 330.117188 271.289062 328.789062 C 270.195312 326.757812 268.828125 326.445312 267.5 327.929688 Z M 267.5 327.929688 "/>
<path style=" stroke:none;fill-rule:nonzero;fill:rgb(0%,0%,0%);fill-opacity:1;" d="M 274.804688 327.265625 C 274.101562 327.929688 274.335938 332.617188 275.117188 333.398438 C 276.875 335.195312 279.882812 333.242188 279.882812 330.351562 C 279.882812 327.929688 276.328125 325.742188 274.804688 327.265625 Z M 274.804688 327.265625 "/>
<path style=" stroke:none;fill-rule:nonzero;fill:rgb(0%,0%,0%);fill-opacity:1;" d="M 132.304688 368.671875 C 125.234375 370.546875 119.257812 376.40625 117.617188 383.125 C 117.265625 384.6875 117.070312 387.929688 117.1875 390.234375 C 117.734375 397.96875 121.875 403.828125 129.21875 407.1875 C 132.070312 408.59375 133.476562 408.828125 138.125 408.828125 C 142.734375 408.828125 144.140625 408.59375 147.070312 407.1875 C 151.71875 405.078125 155.742188 401.210938 157.734375 397.03125 C 161.328125 389.765625 159.335938 379.375 153.359375 373.828125 C 150.117188 370.859375 147.03125 369.257812 142.8125 368.359375 C 138.671875 367.5 136.445312 367.578125 132.304688 368.671875 Z M 141.71875 371.601562 C 144.882812 372.929688 148.398438 376.40625 150.195312 380.117188 C 156.40625 392.8125 151.054688 406.210938 139.765625 406.210938 C 135.546875 406.210938 133.710938 405.546875 130.78125 402.96875 C 124.765625 397.695312 122.265625 388.28125 124.6875 380.117188 C 125.664062 376.71875 128.59375 373.046875 131.40625 371.640625 C 133.710938 370.46875 139.023438 370.46875 141.71875 371.601562 Z M 141.71875 371.601562 "/>
<path style=" stroke:none;fill-rule:nonzero;fill:rgb(0%,0%,0%);fill-opacity:1;" d="M 286.757812 368.28125 C 277.1875 370.3125 271.757812 376.875 271.835938 386.523438 C 271.835938 392.421875 273.554688 397.070312 277.148438 401.054688 C 282.304688 406.835938 288.476562 408.554688 304.53125 408.554688 C 312.304688 408.554688 312.304688 408.554688 310.898438 407.382812 C 309.53125 406.210938 309.453125 405.859375 309.257812 396.289062 C 309.023438 384.648438 309.257812 382.734375 311.171875 381.835938 C 312.1875 381.328125 310.976562 381.171875 305.78125 381.210938 C 302.148438 381.210938 299.570312 381.328125 300.195312 381.523438 C 302.382812 382.070312 303.046875 384.882812 303.046875 393.554688 C 303.046875 398.046875 302.8125 402.421875 302.5 403.242188 C 300.46875 408.398438 287.695312 405.78125 282.929688 399.335938 C 278.398438 393.046875 277.1875 383.59375 280.195312 377.617188 C 282.5 373.046875 285.625 371.09375 291.210938 370.859375 C 296.875 370.546875 299.53125 371.445312 302.851562 374.804688 L 305.546875 377.421875 L 305.117188 375.195312 C 303.90625 368.242188 304.140625 368.671875 301.523438 368.59375 C 300.195312 368.554688 296.875 368.359375 294.21875 368.164062 C 291.523438 367.929688 288.164062 367.96875 286.757812 368.28125 Z M 286.757812 368.28125 "/>
<path style=" stroke:none;fill-rule:nonzero;fill:rgb(0%,0%,0%);fill-opacity:1;" d="M 403.046875 368.242188 C 397.8125 369.921875 395.117188 373.046875 395.117188 377.382812 C 395.117188 380.429688 396.328125 382.96875 398.398438 384.335938 C 399.257812 384.921875 403.789062 386.601562 408.476562 388.125 C 418.945312 391.523438 420.742188 392.929688 420.742188 397.695312 C 420.742188 400.3125 420.46875 400.976562 418.710938 402.734375 C 416.210938 405.234375 412.421875 406.328125 407.851562 405.898438 C 402.578125 405.429688 398.359375 402.734375 394.921875 397.578125 C 393.671875 395.664062 393.671875 395.742188 395.117188 402.265625 L 396.40625 407.617188 L 399.257812 407.695312 C 400.859375 407.695312 404.140625 408.046875 406.601562 408.554688 C 417.1875 410.625 425.46875 405.664062 426.09375 396.953125 C 426.445312 392.304688 426.054688 390.742188 423.671875 388.125 C 421.210938 385.3125 418.828125 384.140625 411.054688 381.757812 C 402.929688 379.375 400.976562 378.242188 400.742188 375.859375 C 400.429688 372.851562 402.8125 371.171875 407.617188 370.859375 C 411.054688 370.625 412.070312 370.859375 415 372.265625 C 417.148438 373.28125 419.101562 374.882812 420.234375 376.445312 C 421.289062 377.8125 422.03125 378.554688 421.835938 378.046875 C 421.640625 377.578125 421.171875 375.195312 420.742188 372.851562 L 420 368.59375 L 416.523438 368.554688 C 414.648438 368.476562 411.210938 368.28125 408.828125 368.125 C 406.523438 367.851562 403.90625 367.929688 403.046875 368.242188 Z M 403.046875 368.242188 "/>
<path style=" stroke:none;fill-rule:nonzero;fill:rgb(0%,0%,0%);fill-opacity:1;" d="M 371.757812 368.710938 L 358.554688 368.90625 L 359.570312 370.546875 C 360.546875 372.03125 360.664062 373.945312 360.664062 388.789062 C 360.664062 406.328125 360.625 406.757812 357.617188 407.96875 C 356.953125 408.242188 363.164062 408.398438 371.875 408.359375 L 387.382812 408.242188 L 389.101562 403.164062 C 390.078125 400.351562 390.976562 397.5 391.210938 396.757812 C 391.445312 396.09375 390.429688 397.03125 388.90625 398.828125 C 384.921875 403.671875 380.625 405.742188 374.257812 405.78125 C 367.148438 405.78125 367.070312 405.742188 367.070312 392.578125 L 367.070312 382.148438 L 371.210938 382.421875 C 375.976562 382.8125 378.242188 383.789062 379.882812 386.328125 C 380.546875 387.304688 381.09375 387.8125 381.054688 387.5 C 380.976562 385.664062 378.789062 376.09375 378.710938 377.265625 C 378.59375 379.21875 376.875 379.882812 371.71875 379.882812 L 367.070312 379.882812 L 367.070312 376.601562 C 367.070312 372.734375 367.929688 371.601562 370.976562 370.976562 C 373.28125 370.546875 379.335938 371.640625 381.835938 372.929688 C 382.734375 373.398438 384.53125 374.765625 385.664062 375.976562 C 386.835938 377.148438 387.8125 377.851562 387.8125 377.578125 C 387.8125 376.09375 385.78125 368.28125 385.429688 368.398438 C 385.234375 368.554688 379.101562 368.671875 371.757812 368.710938 Z M 371.757812 368.710938 "/>
<path style=" stroke:none;fill-rule:nonzero;fill:rgb(0%,0%,0%);fill-opacity:1;" d="M 75.351562 369.335938 C 77.1875 370.664062 77.421875 372.734375 77.421875 388.710938 C 77.421875 405.625 77.265625 406.953125 74.804688 407.929688 C 72.96875 408.671875 90.46875 408.671875 96.171875 407.929688 C 103.164062 407.03125 107.304688 404.21875 110.429688 398.164062 C 111.640625 395.898438 111.875 394.53125 111.875 389.921875 C 111.875 385.195312 111.640625 384.023438 110.195312 381.054688 C 108.242188 376.953125 103.554688 372.382812 99.53125 370.546875 C 96.953125 369.335938 95.429688 369.21875 85.664062 369.023438 C 79.648438 368.945312 75 369.101562 75.351562 369.335938 Z M 96.640625 373.125 C 105.898438 378.28125 108.554688 394.648438 101.289062 401.875 C 97.265625 405.976562 88.789062 407.421875 85.546875 404.648438 L 83.828125 403.164062 L 83.828125 373.046875 L 85.351562 371.835938 C 86.640625 370.78125 87.421875 370.664062 90.234375 370.976562 C 92.148438 371.210938 94.882812 372.148438 96.640625 373.125 Z M 96.640625 373.125 "/>
<path style=" stroke:none;fill-rule:nonzero;fill:rgb(0%,0%,0%);fill-opacity:1;" d="M 166.445312 370.117188 C 167.617188 371.289062 167.695312 372.148438 167.695312 388.164062 C 167.695312 398.90625 167.421875 405.429688 167.03125 406.171875 C 166.640625 406.835938 165.78125 407.617188 165.078125 407.929688 C 164.140625 408.28125 165.742188 408.476562 169.804688 408.476562 C 174.453125 408.398438 175.546875 408.28125 174.335938 407.851562 C 171.523438 406.835938 171.289062 405.234375 171.445312 388.125 L 171.640625 372.265625 L 177.695312 382.734375 C 180.976562 388.554688 183.90625 393.164062 184.140625 392.96875 C 184.375 392.8125 187.421875 388.125 190.898438 382.5 L 197.265625 372.265625 L 197.421875 388.164062 C 197.5 397.8125 197.304688 404.765625 196.953125 405.742188 C 196.640625 406.640625 195.742188 407.617188 195 407.929688 C 194.023438 408.28125 195.898438 408.476562 200.898438 408.476562 C 207.1875 408.554688 207.96875 408.398438 206.71875 407.734375 C 203.789062 406.289062 203.671875 405.195312 203.789062 387.734375 C 203.945312 372.734375 204.023438 371.328125 205.117188 370.195312 L 206.289062 368.90625 L 200.429688 368.90625 C 194.6875 368.90625 194.53125 368.945312 194.53125 370.234375 C 194.53125 371.523438 186.71875 385.351562 185.976562 385.351562 C 185.3125 385.351562 178.046875 371.40625 178.046875 370.195312 C 178.046875 368.945312 177.734375 368.90625 171.640625 368.90625 L 165.234375 368.90625 Z M 166.445312 370.117188 "/>
<path style=" stroke:none;fill-rule:nonzero;fill:rgb(0%,0%,0%);fill-opacity:1;" d="M 214.375 370.195312 C 215.46875 371.328125 215.546875 372.734375 215.742188 387.695312 C 215.898438 405.195312 215.664062 406.835938 212.851562 407.851562 C 211.71875 408.28125 213.242188 408.476562 218.90625 408.476562 C 225.429688 408.554688 226.289062 408.398438 225 407.734375 C 222.070312 406.289062 221.953125 405.195312 222.070312 387.734375 C 222.265625 372.734375 222.304688 371.328125 223.398438 370.195312 L 224.570312 368.90625 L 213.242188 368.90625 Z M 214.375 370.195312 "/>
<path style=" stroke:none;fill-rule:nonzero;fill:rgb(0%,0%,0%);fill-opacity:1;" d="M 232.304688 370.117188 C 233.476562 371.289062 233.554688 372.148438 233.554688 388.164062 C 233.554688 398.90625 233.28125 405.429688 232.851562 406.171875 C 232.5 406.835938 231.640625 407.617188 230.898438 407.929688 C 230 408.28125 231.601562 408.476562 235.664062 408.476562 C 240.351562 408.398438 241.40625 408.28125 240.117188 407.851562 C 239.140625 407.5 238.242188 406.523438 237.851562 405.351562 C 237.1875 403.476562 236.875 373.164062 237.5 373.164062 C 238.28125 373.164062 259.648438 391.445312 260 392.382812 C 260.625 394.101562 260.429688 404.140625 259.6875 405.742188 C 259.257812 406.601562 258.242188 407.578125 257.382812 407.851562 C 256.171875 408.28125 257.304688 408.476562 261.875 408.476562 C 267.304688 408.476562 267.8125 408.398438 266.523438 407.695312 C 265.664062 407.1875 264.804688 406.328125 264.570312 405.742188 C 264.335938 405.078125 264.101562 397.070312 264.101562 387.929688 C 264.023438 372.148438 264.101562 371.289062 265.234375 370.117188 L 266.445312 368.90625 L 257.851562 368.90625 L 259.101562 370.46875 C 260.195312 371.875 260.351562 372.96875 260.351562 377.8125 C 260.351562 380.976562 260.195312 383.554688 260 383.554688 C 259.53125 383.554688 245.664062 372.070312 244.6875 370.859375 C 244.257812 370.351562 244.101562 369.6875 244.257812 369.453125 C 244.453125 369.140625 241.523438 368.90625 237.851562 368.90625 L 231.09375 368.90625 Z M 232.304688 370.117188 "/>
<path style=" stroke:none;fill-rule:nonzero;fill:rgb(0%,0%,0%);fill-opacity:1;" d="M 319.257812 370.429688 C 320.117188 371.71875 320.195312 373.671875 319.804688 386.40625 L 319.375 400.898438 L 320.859375 403.046875 C 322.929688 406.09375 325.625 407.695312 330.234375 408.554688 C 337.929688 410 345.46875 407.695312 348.671875 402.851562 L 350.3125 400.351562 L 350.117188 386.09375 C 350 373.945312 350.078125 371.601562 350.898438 370.351562 L 351.835938 368.90625 L 347.8125 368.90625 C 343.789062 368.90625 343.710938 368.90625 344.804688 370.117188 C 346.171875 371.601562 346.835938 377.96875 347.03125 390.234375 C 347.1875 400.976562 346.71875 402.382812 341.875 404.648438 C 336.71875 407.03125 330.859375 406.328125 327.617188 402.929688 C 326.054688 401.289062 325.898438 400.742188 325.742188 395.234375 C 325.429688 385.859375 326.445312 372.265625 327.695312 370.429688 L 328.671875 368.90625 L 318.28125 368.90625 Z M 319.257812 370.429688 "/>
</g>
</svg>
