<?xml version="1.0" encoding="UTF-8"?>
<svg xmlns="http://www.w3.org/2000/svg" xmlns:xlink="http://www.w3.org/1999/xlink" width="50px" height="50px" viewBox="0 0 50 50" version="1.1">
<g id="surface1">
<path style=" stroke:none;fill-rule:nonzero;fill:rgb(0%,0%,0%);fill-opacity:1;" d="M 16.632812 10.609375 C 16.707031 10.640625 16.796875 10.738281 16.828125 10.824219 C 16.867188 10.914062 16.890625 11.597656 16.890625 12.355469 C 16.890625 13.839844 16.855469 14.046875 16.5625 14.238281 C 16.367188 14.367188 15.894531 14.371094 15.695312 14.238281 C 15.410156 14.054688 15.292969 13.785156 15.324219 13.394531 L 15.355469 13.042969 L 15.0625 13.519531 L 14.769531 13.992188 L 14.894531 14.132812 C 15.074219 14.328125 15.585938 14.566406 15.925781 14.609375 C 16.316406 14.664062 16.796875 14.535156 17.054688 14.3125 C 17.453125 13.964844 17.464844 13.902344 17.5 12.3125 C 17.53125 10.792969 17.542969 10.726562 17.835938 10.609375 C 17.910156 10.578125 17.671875 10.554688 17.226562 10.554688 C 16.726562 10.554688 16.535156 10.574219 16.632812 10.609375 Z M 16.632812 10.609375 "/>
<path style=" stroke:none;fill-rule:nonzero;fill:rgb(0%,0%,0%);fill-opacity:1;" d="M 18.273438 10.609375 C 18.347656 10.640625 18.433594 10.71875 18.46875 10.785156 C 18.511719 10.859375 18.535156 11.507812 18.535156 12.5625 C 18.535156 13.617188 18.511719 14.261719 18.46875 14.335938 C 18.433594 14.402344 18.347656 14.480469 18.273438 14.511719 C 18.1875 14.542969 18.738281 14.5625 19.6875 14.554688 L 21.238281 14.542969 L 21.410156 14.035156 C 21.507812 13.757812 21.597656 13.46875 21.621094 13.394531 C 21.644531 13.316406 21.566406 13.382812 21.445312 13.542969 C 21.03125 14.078125 20.347656 14.382812 19.714844 14.3125 C 19.226562 14.257812 19.207031 14.214844 19.207031 13.007812 L 19.207031 11.953125 L 19.542969 11.953125 C 19.976562 11.953125 20.328125 12.097656 20.488281 12.335938 L 20.609375 12.53125 L 20.578125 12.347656 C 20.390625 11.3125 20.390625 11.3125 20.347656 11.46875 C 20.296875 11.664062 20.171875 11.707031 19.621094 11.707031 L 19.207031 11.707031 L 19.207031 11.382812 C 19.207031 10.894531 19.285156 10.824219 19.828125 10.828125 C 20.367188 10.835938 20.769531 10.992188 21.074219 11.316406 C 21.3125 11.566406 21.3125 11.5625 21.183594 10.980469 L 21.085938 10.546875 L 19.609375 10.554688 C 18.703125 10.554688 18.1875 10.578125 18.273438 10.609375 Z M 18.273438 10.609375 "/>
<path style=" stroke:none;fill-rule:nonzero;fill:rgb(0%,0%,0%);fill-opacity:1;" d="M 23.128906 10.617188 C 23.183594 10.644531 23.230469 10.742188 23.230469 10.824219 C 23.230469 10.992188 22.066406 14.078125 21.925781 14.28125 C 21.871094 14.355469 21.769531 14.453125 21.695312 14.492188 C 21.574219 14.554688 21.644531 14.566406 22.164062 14.566406 C 22.652344 14.566406 22.742188 14.546875 22.632812 14.5 C 22.394531 14.382812 22.394531 14.171875 22.652344 13.425781 L 22.890625 12.742188 L 23.140625 12.742188 C 23.46875 12.742188 24.097656 13.054688 24.296875 13.316406 C 24.488281 13.566406 24.632812 13.914062 24.632812 14.117188 C 24.632812 14.203125 24.566406 14.339844 24.480469 14.421875 L 24.335938 14.574219 L 25.019531 14.566406 C 25.542969 14.566406 25.671875 14.546875 25.566406 14.5 C 25.492188 14.464844 25.414062 14.390625 25.394531 14.335938 C 25.164062 13.769531 24.207031 10.925781 24.207031 10.816406 C 24.207031 10.738281 24.257812 10.644531 24.316406 10.617188 C 24.390625 10.566406 24.226562 10.554688 23.71875 10.554688 C 23.214844 10.554688 23.046875 10.566406 23.128906 10.617188 Z M 23.925781 11.953125 C 24.109375 12.46875 24.25 12.902344 24.238281 12.914062 C 24.226562 12.925781 24.140625 12.882812 24.042969 12.816406 C 23.835938 12.671875 23.347656 12.5 23.140625 12.5 C 23.054688 12.5 22.988281 12.488281 22.988281 12.476562 C 22.988281 12.464844 23.0625 12.261719 23.144531 12.035156 C 23.230469 11.804688 23.359375 11.46875 23.425781 11.292969 C 23.492188 11.117188 23.5625 10.976562 23.574219 10.988281 C 23.585938 11 23.742188 11.433594 23.925781 11.953125 Z M 23.925781 11.953125 "/>
<path style=" stroke:none;fill-rule:nonzero;fill:rgb(0%,0%,0%);fill-opacity:1;" d="M 25.957031 10.695312 L 26.128906 10.839844 L 26.144531 12.476562 C 26.164062 14.238281 26.140625 14.402344 25.859375 14.507812 C 25.738281 14.546875 25.847656 14.5625 26.3125 14.566406 C 26.71875 14.566406 26.878906 14.546875 26.785156 14.511719 C 26.535156 14.410156 26.523438 14.285156 26.535156 12.617188 L 26.554688 11.019531 L 27.660156 11.945312 C 28.296875 12.476562 28.78125 12.921875 28.804688 13 C 28.871094 13.25 28.839844 14.109375 28.761719 14.269531 C 28.71875 14.347656 28.617188 14.453125 28.535156 14.492188 C 28.402344 14.5625 28.464844 14.574219 28.992188 14.566406 C 29.410156 14.566406 29.5625 14.546875 29.46875 14.511719 C 29.195312 14.402344 29.175781 14.28125 29.175781 12.523438 C 29.175781 10.769531 29.183594 10.726562 29.480469 10.609375 C 29.554688 10.574219 29.371094 10.554688 28.992188 10.554688 C 28.617188 10.554688 28.433594 10.574219 28.507812 10.609375 C 28.757812 10.707031 28.804688 10.847656 28.828125 11.476562 C 28.847656 11.894531 28.835938 12.078125 28.792969 12.066406 C 28.644531 12.019531 27.195312 10.773438 27.195312 10.703125 C 27.195312 10.652344 27.230469 10.605469 27.273438 10.589844 C 27.3125 10.574219 26.992188 10.554688 26.566406 10.554688 L 25.785156 10.546875 Z M 25.957031 10.695312 "/>
<path style=" stroke:none;fill-rule:nonzero;fill:rgb(0%,0%,0%);fill-opacity:1;" d="M 20.695312 16.160156 C 20.195312 16.316406 19.628906 16.703125 19.410156 17.023438 C 19.144531 17.402344 19.066406 17.6875 19.097656 18.207031 C 19.109375 18.457031 19.109375 18.660156 19.105469 18.660156 C 19.097656 18.660156 19.023438 18.542969 18.953125 18.394531 C 18.75 18.019531 18.75 17.160156 18.957031 16.769531 L 19.097656 16.492188 L 18.882812 16.703125 C 18.578125 16.988281 18.402344 17.433594 18.402344 17.902344 C 18.410156 18.367188 18.554688 18.695312 18.953125 19.097656 L 19.226562 19.382812 L 19.1875 19.828125 C 19.171875 20.074219 19.105469 20.433594 19.035156 20.628906 C 18.894531 21.019531 18.910156 21.089844 19.160156 21.410156 C 19.25 21.53125 19.328125 21.6875 19.328125 21.757812 C 19.328125 21.894531 19.175781 22.273438 18.871094 22.882812 C 18.675781 23.273438 18.664062 23.316406 18.75 23.476562 C 18.796875 23.566406 18.933594 23.703125 19.054688 23.769531 C 19.226562 23.871094 19.269531 23.9375 19.269531 24.078125 C 19.269531 24.183594 19.296875 24.394531 19.335938 24.566406 C 19.394531 24.867188 19.402344 24.871094 19.703125 24.933594 C 19.871094 24.96875 20.132812 25 20.292969 25 L 20.578125 24.992188 L 20.410156 24.902344 C 20.316406 24.855469 20.066406 24.757812 19.847656 24.6875 C 19.453125 24.566406 19.328125 24.453125 19.597656 24.453125 C 19.855469 24.453125 21.007812 24.8125 21.085938 24.921875 C 21.121094 24.976562 21.160156 25.132812 21.160156 25.273438 C 21.160156 25.664062 20.824219 25.914062 20.304688 25.914062 C 20.109375 25.914062 20.042969 25.882812 19.957031 25.757812 C 19.859375 25.597656 19.859375 25.589844 19.992188 25.476562 C 20.074219 25.414062 20.128906 25.355469 20.109375 25.335938 C 20.097656 25.324219 19.933594 25.292969 19.75 25.269531 L 19.410156 25.230469 L 19.335938 25.589844 C 19.269531 25.894531 19.269531 25.988281 19.347656 26.171875 C 19.5 26.535156 19.6875 26.617188 20.367188 26.609375 C 20.878906 26.609375 21.03125 26.578125 21.707031 26.355469 C 22.457031 26.097656 23.792969 25.480469 24.074219 25.257812 C 24.207031 25.152344 24.238281 25.019531 24.394531 23.894531 C 24.609375 22.410156 24.683594 22.152344 24.992188 21.871094 C 25.433594 21.476562 25.925781 21.445312 26.089844 21.804688 C 26.394531 22.480469 25.738281 23.585938 24.953125 23.714844 L 24.726562 23.75 L 24.640625 24.296875 C 24.511719 25.152344 24.464844 25.3125 24.21875 25.53125 C 23.957031 25.773438 23.132812 26.203125 22.480469 26.433594 C 22.105469 26.566406 22.011719 26.621094 22.046875 26.703125 C 22.132812 26.910156 22.144531 27.023438 22.097656 27.066406 C 22.066406 27.085938 21.980469 27.230469 21.910156 27.382812 C 21.75 27.71875 21.316406 28.226562 20.902344 28.554688 L 20.609375 28.792969 L 20.609375 30.738281 L 20.824219 30.828125 C 21.097656 30.945312 21.121094 30.9375 20.976562 30.792969 C 20.910156 30.726562 20.855469 30.597656 20.855469 30.5 C 20.855469 30.410156 20.835938 30.273438 20.816406 30.203125 C 20.785156 30.085938 20.804688 30.066406 21.007812 30.046875 C 21.230469 30.03125 21.238281 30.023438 21.402344 29.574219 C 21.6875 28.792969 22.011719 27.976562 22.109375 27.792969 L 22.203125 27.617188 L 22.378906 27.742188 C 22.640625 27.933594 22.652344 27.976562 22.433594 28.097656 C 22.328125 28.152344 22.171875 28.257812 22.089844 28.324219 L 21.945312 28.445312 L 22.128906 28.980469 C 22.296875 29.476562 22.304688 29.53125 22.21875 29.726562 C 22.171875 29.839844 22.132812 29.953125 22.132812 29.96875 C 22.132812 29.988281 22.382812 30 22.6875 30 L 23.25 30 L 23.214844 29.757812 C 23.1875 29.546875 23.207031 29.480469 23.339844 29.339844 C 23.433594 29.25 23.578125 29.078125 23.664062 28.964844 L 23.828125 28.75 L 24.296875 28.980469 L 24.769531 29.214844 L 24.597656 29.4375 C 24.507812 29.5625 24.378906 29.730469 24.316406 29.8125 C 24.160156 30.019531 24.175781 30.046875 24.464844 30.128906 C 24.816406 30.21875 25.257812 30.453125 25.511719 30.671875 L 25.71875 30.855469 L 26.183594 30.617188 C 26.828125 30.28125 27.382812 29.871094 27.921875 29.335938 C 28.316406 28.9375 28.964844 28.128906 28.964844 28.023438 C 28.964844 28.007812 28.75 27.828125 28.492188 27.632812 C 27.980469 27.242188 27.585938 26.839844 27.261719 26.390625 C 27.152344 26.238281 27.011719 26.097656 26.957031 26.078125 C 26.894531 26.066406 26.773438 25.878906 26.671875 25.644531 C 26.578125 25.425781 26.464844 25.242188 26.421875 25.242188 C 26.3125 25.242188 26.316406 24.597656 26.433594 24.074219 C 26.476562 23.847656 26.671875 23.273438 26.855469 22.804688 C 27.042969 22.339844 27.195312 21.925781 27.195312 21.894531 C 27.195312 21.859375 27.242188 21.785156 27.3125 21.726562 C 27.464844 21.578125 27.5625 21.085938 27.5625 20.46875 C 27.566406 20.007812 27.574219 19.980469 27.660156 20.089844 C 27.707031 20.160156 27.769531 20.285156 27.785156 20.378906 C 27.855469 20.707031 27.945312 20.554688 27.914062 20.164062 C 27.871094 19.6875 27.671875 19.28125 27.257812 18.816406 C 27.078125 18.628906 26.953125 18.476562 26.96875 18.476562 C 27.085938 18.476562 27.554688 18.6875 27.664062 18.792969 C 27.894531 19.011719 27.824219 18.816406 27.554688 18.511719 C 27.414062 18.359375 27.175781 18.160156 27.023438 18.066406 C 26.660156 17.859375 26.664062 17.867188 26.769531 17.804688 C 27.035156 17.640625 25.824219 17.011719 25.230469 17.011719 C 24.933594 17.011719 25.105469 16.902344 25.46875 16.855469 C 25.921875 16.796875 25.792969 16.730469 24.988281 16.609375 C 22.835938 16.28125 21.0625 17.183594 20.480469 18.902344 C 20.445312 19.007812 20.433594 18.925781 20.453125 18.660156 C 20.480469 18.144531 20.664062 17.75 21.074219 17.347656 C 21.597656 16.835938 22.476562 16.480469 23.507812 16.378906 C 23.707031 16.355469 23.980469 16.316406 24.117188 16.296875 C 24.359375 16.257812 24.355469 16.257812 23.933594 16.183594 C 22.671875 15.957031 21.316406 16.257812 20.542969 16.945312 C 20.117188 17.316406 19.925781 17.769531 19.882812 18.507812 L 19.847656 19.117188 L 19.757812 18.871094 C 19.707031 18.738281 19.664062 18.433594 19.664062 18.203125 C 19.664062 17.390625 20.144531 16.726562 21.066406 16.273438 C 21.546875 16.042969 21.554688 16.035156 21.3125 16.042969 C 21.175781 16.042969 20.902344 16.097656 20.695312 16.160156 Z M 25.414062 17.410156 C 25.597656 17.464844 25.730469 17.519531 25.71875 17.53125 C 25.714844 17.535156 25.410156 17.519531 25.046875 17.488281 C 23.632812 17.355469 22.546875 17.75 21.46875 18.796875 C 21.164062 19.097656 21.089844 19.144531 21.128906 19.023438 C 21.355469 18.25 22.355469 17.511719 23.476562 17.292969 C 23.796875 17.230469 25.097656 17.304688 25.414062 17.410156 Z M 25.855469 18.023438 C 25.882812 18.054688 25.683594 18.078125 25.347656 18.085938 C 24.738281 18.089844 24.21875 18.214844 23.53125 18.53125 C 23.089844 18.726562 22.089844 19.371094 21.953125 19.542969 C 21.867188 19.644531 21.882812 19.652344 22.5 19.609375 C 22.855469 19.585938 23.402344 19.523438 23.71875 19.476562 C 24.574219 19.347656 25.3125 19.46875 26.035156 19.855469 C 26.394531 20.046875 26.828125 20.378906 26.828125 20.457031 C 26.828125 20.476562 26.714844 20.414062 26.574219 20.316406 C 26.207031 20.066406 25.703125 19.890625 25.042969 19.785156 C 24.339844 19.671875 23.894531 19.671875 23.207031 19.785156 C 22.628906 19.878906 22.585938 19.894531 22.644531 19.992188 C 22.707031 20.089844 23.085938 20.171875 23.75 20.214844 C 24.476562 20.257812 25.089844 20.378906 25.546875 20.554688 C 25.867188 20.683594 26.160156 20.867188 25.882812 20.769531 C 25.390625 20.589844 24.5 20.457031 23.507812 20.414062 L 23.078125 20.394531 L 23.0625 20.632812 C 23.042969 20.855469 23.066406 20.902344 23.421875 21.257812 C 23.761719 21.605469 23.796875 21.664062 23.828125 21.945312 C 23.890625 22.605469 23.644531 23.109375 23.046875 23.5625 C 22.839844 23.714844 22.6875 23.839844 22.707031 23.839844 C 22.796875 23.839844 23.207031 23.644531 23.304688 23.554688 C 23.46875 23.410156 23.492188 23.488281 23.378906 23.773438 C 23.242188 24.105469 22.9375 24.367188 22.347656 24.640625 C 21.71875 24.933594 21.578125 24.953125 21.488281 24.761719 C 21.425781 24.640625 21.257812 24.5625 20.609375 24.355469 C 20.164062 24.214844 19.773438 24.066406 19.738281 24.03125 C 19.695312 23.988281 19.742188 23.945312 19.882812 23.882812 L 20.089844 23.792969 L 19.867188 23.695312 C 19.738281 23.640625 19.597656 23.597656 19.542969 23.597656 C 19.378906 23.597656 19.023438 23.425781 19.023438 23.339844 C 19.023438 23.296875 19.164062 22.976562 19.339844 22.621094 C 19.738281 21.824219 19.761719 21.589844 19.457031 21.21875 L 19.257812 20.96875 L 19.382812 20.5625 C 19.453125 20.335938 19.523438 20.019531 19.546875 19.859375 C 19.585938 19.574219 19.589844 19.566406 19.75 19.617188 C 19.835938 19.640625 20.171875 19.664062 20.488281 19.664062 C 21.164062 19.664062 21.371094 19.578125 22.257812 18.925781 C 23.089844 18.316406 23.726562 18.042969 24.542969 17.9375 C 24.957031 17.890625 25.769531 17.9375 25.855469 18.023438 Z M 26.066406 18.933594 C 26.507812 19.046875 26.953125 19.285156 27.175781 19.53125 L 27.347656 19.714844 L 27.097656 19.546875 C 26.574219 19.207031 25.605469 18.964844 24.738281 18.957031 C 24.367188 18.957031 24.21875 18.9375 24.296875 18.902344 C 24.507812 18.8125 25.675781 18.835938 26.066406 18.933594 Z M 25.476562 24.953125 C 25.546875 25.394531 25.609375 25.824219 25.609375 25.894531 C 25.609375 26.097656 25.03125 26.46875 23.488281 27.257812 L 22.859375 27.578125 L 22.671875 27.390625 C 22.5625 27.28125 22.5 27.171875 22.519531 27.117188 C 22.535156 27.066406 22.75 26.921875 22.988281 26.792969 C 23.242188 26.660156 23.628906 26.378906 23.902344 26.117188 C 24.164062 25.871094 24.394531 25.671875 24.414062 25.671875 C 24.476562 25.671875 24.457031 25.890625 24.359375 26.152344 C 24.3125 26.292969 24.296875 26.390625 24.328125 26.371094 C 24.457031 26.292969 24.695312 25.78125 24.96875 24.980469 C 25.128906 24.523438 25.28125 24.144531 25.296875 24.144531 C 25.324219 24.144531 25.402344 24.511719 25.476562 24.953125 Z M 26.457031 26.195312 C 26.523438 26.445312 26.511719 26.5 26.378906 26.785156 C 26.238281 27.066406 25.359375 28.359375 24.933594 28.910156 L 24.773438 29.109375 L 24.261719 28.75 C 23.980469 28.554688 23.628906 28.3125 23.476562 28.214844 C 23.324219 28.109375 23.175781 28.007812 23.144531 27.980469 C 23.121094 27.957031 23.480469 27.742188 23.957031 27.5 C 24.933594 27.007812 25.785156 26.464844 26.089844 26.132812 C 26.207031 26.011719 26.324219 25.914062 26.347656 25.914062 C 26.371094 25.914062 26.421875 26.042969 26.457031 26.195312 Z M 26.457031 26.195312 "/>
<path style=" stroke:none;fill-rule:nonzero;fill:rgb(0%,0%,0%);fill-opacity:1;" d="M 20 21.304688 C 20 21.4375 20.230469 21.660156 20.433594 21.71875 C 20.664062 21.785156 20.742188 21.910156 20.597656 21.976562 C 20.46875 22.023438 20.714844 22.183594 20.988281 22.226562 C 21.261719 22.273438 21.890625 22.214844 21.890625 22.140625 C 21.890625 22.109375 21.761719 22.042969 21.605469 21.988281 C 21.046875 21.785156 21.042969 21.769531 21.554688 21.792969 C 21.824219 21.8125 22.128906 21.839844 22.226562 21.859375 C 22.402344 21.894531 22.402344 21.890625 22.117188 21.621094 L 21.816406 21.339844 L 21.097656 21.339844 C 20.707031 21.339844 20.292969 21.324219 20.1875 21.304688 C 20.085938 21.28125 20 21.28125 20 21.304688 Z M 20 21.304688 "/>
<path style=" stroke:none;fill-rule:nonzero;fill:rgb(0%,0%,0%);fill-opacity:1;" d="M 17.675781 19.25 C 17.078125 19.867188 16.792969 20.257812 16.382812 21.011719 C 15.714844 22.242188 15.445312 23.214844 15.382812 24.605469 C 15.328125 25.953125 15.578125 27.046875 16.21875 28.28125 C 16.816406 29.421875 17.574219 30.296875 18.566406 31.007812 L 19.054688 31.355469 L 19.085938 30.992188 L 19.121094 30.640625 L 18.839844 30.402344 C 17.742188 29.453125 16.835938 28.230469 16.445312 27.195312 C 15.878906 25.664062 15.882812 24.019531 16.46875 22.425781 C 16.839844 21.414062 17.335938 20.605469 18.109375 19.757812 L 18.578125 19.238281 L 18.382812 19.007812 C 18.273438 18.882812 18.175781 18.78125 18.160156 18.78125 C 18.144531 18.78125 17.925781 18.992188 17.675781 19.25 Z M 17.675781 19.25 "/>
<path style=" stroke:none;fill-rule:nonzero;fill:rgb(0%,0%,0%);fill-opacity:1;" d="M 28.144531 18.867188 C 28.164062 18.910156 28.132812 18.992188 28.078125 19.046875 C 28 19.121094 27.992188 19.171875 28.042969 19.230469 C 28.078125 19.273438 28.144531 19.425781 28.203125 19.566406 C 28.25 19.707031 28.410156 19.96875 28.554688 20.140625 C 29.046875 20.730469 29.476562 21.46875 29.804688 22.316406 C 30.738281 24.707031 30.261719 27.355469 28.546875 29.285156 C 27.953125 29.964844 26.921875 30.75 26.238281 31.046875 C 26.078125 31.117188 25.9375 31.183594 25.925781 31.1875 C 25.890625 31.21875 26.238281 31.769531 26.292969 31.769531 C 26.402344 31.769531 27.214844 31.335938 27.652344 31.046875 C 28.195312 30.6875 29.152344 29.738281 29.566406 29.144531 C 30.183594 28.273438 30.628906 27.226562 30.824219 26.1875 C 31.007812 25.214844 30.914062 23.46875 30.632812 22.589844 C 30.328125 21.652344 29.78125 20.585938 29.257812 19.902344 C 28.683594 19.164062 28.023438 18.542969 28.144531 18.867188 Z M 28.144531 18.867188 "/>
<path style=" stroke:none;fill-rule:nonzero;fill:rgb(0%,0%,0%);fill-opacity:1;" d="M 18.425781 19.980469 C 17.367188 21.214844 16.714844 22.535156 16.519531 23.839844 C 16.421875 24.535156 16.476562 25.804688 16.640625 26.433594 C 16.902344 27.425781 17.511719 28.457031 18.378906 29.371094 C 19.105469 30.140625 19.085938 30.140625 19.085938 29.3125 L 19.085938 28.621094 L 18.839844 28.511719 L 18.589844 28.402344 L 18.609375 28.0625 L 18.628906 27.714844 L 19.964844 27.703125 L 21.304688 27.695312 L 21.433594 27.425781 C 21.507812 27.285156 21.585938 27.089844 21.609375 26.992188 C 21.660156 26.796875 21.617188 26.792969 21.152344 26.933594 C 20.96875 26.988281 20.605469 27.03125 20.335938 27.035156 C 19.921875 27.035156 19.796875 27.011719 19.53125 26.871094 C 19.074219 26.632812 18.933594 26.410156 18.9375 25.914062 C 18.9375 25.695312 18.953125 25.410156 18.964844 25.273438 C 18.976562 25.140625 18.957031 24.824219 18.933594 24.574219 C 18.882812 24.140625 18.871094 24.109375 18.617188 23.871094 C 18.214844 23.5 18.207031 23.335938 18.589844 22.574219 C 18.761719 22.230469 18.902344 21.894531 18.902344 21.824219 C 18.902344 21.75 18.835938 21.617188 18.75 21.511719 C 18.574219 21.304688 18.542969 20.894531 18.683594 20.511719 C 18.792969 20.1875 18.859375 19.632812 18.785156 19.632812 C 18.757812 19.632812 18.597656 19.792969 18.425781 19.980469 Z M 18.425781 19.980469 "/>
<path style=" stroke:none;fill-rule:nonzero;fill:rgb(0%,0%,0%);fill-opacity:1;" d="M 28.128906 20.742188 C 28.054688 20.921875 27.957031 21.21875 27.902344 21.402344 C 27.855469 21.589844 27.675781 22.03125 27.511719 22.378906 C 27 23.46875 26.816406 24.011719 26.785156 24.511719 C 26.757812 24.933594 26.769531 24.992188 26.945312 25.324219 C 27.128906 25.671875 27.839844 26.554688 28.238281 26.925781 C 28.355469 27.035156 28.609375 27.238281 28.8125 27.371094 L 29.171875 27.628906 L 29.28125 27.425781 C 29.339844 27.316406 29.46875 26.964844 29.574219 26.644531 C 30.011719 25.257812 29.894531 23.5 29.28125 22.105469 C 29.089844 21.675781 28.605469 20.839844 28.402344 20.589844 L 28.257812 20.414062 Z M 28.128906 20.742188 "/>
<path style=" stroke:none;fill-rule:nonzero;fill:rgb(0%,0%,0%);fill-opacity:1;" d="M 25.3125 22.160156 C 25.128906 22.347656 25.117188 22.382812 25.152344 22.628906 C 25.183594 22.855469 25.171875 22.925781 25.0625 23.066406 C 24.882812 23.292969 24.9375 23.335938 25.226562 23.195312 C 25.519531 23.046875 25.644531 22.8125 25.695312 22.328125 C 25.726562 21.992188 25.71875 21.953125 25.621094 21.953125 C 25.5625 21.953125 25.421875 22.042969 25.3125 22.160156 Z M 25.3125 22.160156 "/>
<path style=" stroke:none;fill-rule:nonzero;fill:rgb(0%,0%,0%);fill-opacity:1;" d="M 18.964844 28.117188 C 18.964844 28.132812 19.046875 28.1875 19.152344 28.230469 C 19.53125 28.390625 19.519531 28.324219 19.5 31.230469 C 19.480469 34.128906 19.476562 34.183594 19.117188 34.414062 C 18.730469 34.671875 18.109375 34.574219 17.890625 34.230469 C 17.78125 34.074219 17.78125 34.0625 17.890625 34 C 18.164062 33.839844 18.242188 33.714844 18.207031 33.488281 C 18.132812 33.007812 17.652344 32.8125 17.328125 33.128906 C 17.195312 33.261719 17.171875 33.347656 17.171875 33.609375 C 17.175781 34.21875 17.546875 34.683594 18.140625 34.816406 C 18.902344 34.988281 19.628906 34.617188 19.96875 33.871094 C 20.21875 33.324219 20.242188 33.023438 20.242188 30.707031 C 20.242188 28.25 20.21875 28.378906 20.660156 28.226562 C 20.769531 28.1875 20.855469 28.140625 20.855469 28.121094 C 20.855469 28.097656 20.425781 28.078125 19.910156 28.074219 C 19.390625 28.074219 18.964844 28.089844 18.964844 28.117188 Z M 18.964844 28.117188 "/>
<path style=" stroke:none;fill-rule:nonzero;fill:rgb(0%,0%,0%);fill-opacity:1;" d="M 21.261719 30.378906 C 21.183594 30.425781 21.226562 30.445312 21.628906 30.546875 C 21.773438 30.585938 21.914062 30.664062 21.953125 30.730469 C 22.019531 30.859375 22.023438 34.140625 21.957031 34.390625 C 21.925781 34.511719 21.859375 34.554688 21.628906 34.597656 C 21.414062 34.640625 21.339844 34.683594 21.339844 34.761719 C 21.339844 34.867188 21.421875 34.871094 22.488281 34.871094 C 23.171875 34.867188 23.792969 34.828125 24.042969 34.78125 C 24.785156 34.632812 25.3125 34.25 25.640625 33.597656 C 25.824219 33.230469 25.871094 32.992188 25.867188 32.421875 C 25.859375 32.042969 25.824219 31.867188 25.703125 31.589844 C 25.511719 31.175781 25.371094 31.019531 24.96875 30.761719 C 24.425781 30.414062 24.195312 30.371094 22.695312 30.355469 C 21.945312 30.339844 21.296875 30.355469 21.261719 30.378906 Z M 24.097656 30.78125 C 24.421875 30.921875 24.644531 31.144531 24.828125 31.523438 C 24.953125 31.769531 24.96875 31.894531 24.96875 32.621094 C 24.96875 33.3125 24.953125 33.480469 24.855469 33.660156 C 24.695312 33.957031 24.402344 34.257812 24.117188 34.402344 C 23.859375 34.535156 23.226562 34.617188 22.964844 34.546875 L 22.804688 34.511719 L 22.804688 30.589844 L 23.3125 30.621094 C 23.628906 30.644531 23.925781 30.703125 24.097656 30.78125 Z M 24.097656 30.78125 "/>
<path style=" stroke:none;fill-rule:nonzero;fill:rgb(0%,0%,0%);fill-opacity:1;" d="M 23.6875 31.164062 C 23.628906 31.261719 23.6875 31.292969 23.867188 31.242188 C 23.953125 31.226562 24.007812 31.183594 23.988281 31.152344 C 23.945312 31.078125 23.738281 31.085938 23.6875 31.164062 Z M 23.6875 31.164062 "/>
<path style=" stroke:none;fill-rule:nonzero;fill:rgb(0%,0%,0%);fill-opacity:1;" d="M 24.238281 31.523438 C 24.171875 31.554688 23.988281 31.578125 23.835938 31.578125 C 23.675781 31.585938 23.464844 31.605469 23.359375 31.621094 C 23.175781 31.660156 23.171875 31.671875 23.171875 32 L 23.171875 32.335938 L 23.644531 32.292969 C 24.414062 32.21875 24.542969 32.183594 24.53125 32.007812 C 24.53125 31.921875 24.488281 31.769531 24.4375 31.664062 C 24.371094 31.511719 24.335938 31.488281 24.238281 31.523438 Z M 24.238281 31.523438 "/>
<path style=" stroke:none;fill-rule:nonzero;fill:rgb(0%,0%,0%);fill-opacity:1;" d="M 20.609375 31.546875 C 20.609375 31.738281 20.640625 31.902344 20.6875 31.933594 C 20.792969 32.011719 21.230469 32.132812 21.425781 32.132812 C 21.578125 32.132812 21.585938 32.121094 21.585938 31.804688 L 21.585938 31.476562 L 21.164062 31.347656 C 20.933594 31.273438 20.714844 31.21875 20.675781 31.21875 C 20.632812 31.21875 20.609375 31.347656 20.609375 31.546875 Z M 20.609375 31.546875 "/>
<path style=" stroke:none;fill-rule:nonzero;fill:rgb(0%,0%,0%);fill-opacity:1;" d="M 26.75 32.792969 C 26.617188 32.945312 26.617188 33.1875 26.761719 33.316406 C 26.894531 33.4375 27.03125 33.394531 27.140625 33.195312 C 27.207031 33.0625 27.207031 33.011719 27.128906 32.878906 C 27.019531 32.675781 26.882812 32.644531 26.75 32.792969 Z M 26.75 32.792969 "/>
<path style=" stroke:none;fill-rule:nonzero;fill:rgb(0%,0%,0%);fill-opacity:1;" d="M 27.480469 32.726562 C 27.410156 32.792969 27.433594 33.261719 27.511719 33.339844 C 27.6875 33.519531 27.988281 33.324219 27.988281 33.035156 C 27.988281 32.792969 27.632812 32.574219 27.480469 32.726562 Z M 27.480469 32.726562 "/>
<path style=" stroke:none;fill-rule:nonzero;fill:rgb(0%,0%,0%);fill-opacity:1;" d="M 13.230469 36.867188 C 12.523438 37.054688 11.925781 37.640625 11.761719 38.3125 C 11.726562 38.46875 11.707031 38.792969 11.71875 39.023438 C 11.773438 39.796875 12.1875 40.382812 12.921875 40.71875 C 13.207031 40.859375 13.347656 40.882812 13.8125 40.882812 C 14.273438 40.882812 14.414062 40.859375 14.707031 40.71875 C 15.171875 40.507812 15.574219 40.121094 15.773438 39.703125 C 16.132812 38.976562 15.933594 37.9375 15.335938 37.382812 C 15.011719 37.085938 14.703125 36.925781 14.28125 36.835938 C 13.867188 36.75 13.644531 36.757812 13.230469 36.867188 Z M 14.171875 37.160156 C 14.488281 37.292969 14.839844 37.640625 15.019531 38.011719 C 15.640625 39.28125 15.105469 40.621094 13.976562 40.621094 C 13.554688 40.621094 13.371094 40.554688 13.078125 40.296875 C 12.476562 39.769531 12.226562 38.828125 12.46875 38.011719 C 12.566406 37.671875 12.859375 37.304688 13.140625 37.164062 C 13.371094 37.046875 13.902344 37.046875 14.171875 37.160156 Z M 14.171875 37.160156 "/>
<path style=" stroke:none;fill-rule:nonzero;fill:rgb(0%,0%,0%);fill-opacity:1;" d="M 28.675781 36.828125 C 27.71875 37.03125 27.175781 37.6875 27.183594 38.652344 C 27.183594 39.242188 27.355469 39.707031 27.714844 40.105469 C 28.230469 40.683594 28.847656 40.855469 30.453125 40.855469 C 31.230469 40.855469 31.230469 40.855469 31.089844 40.738281 C 30.953125 40.621094 30.945312 40.585938 30.925781 39.628906 C 30.902344 38.464844 30.925781 38.273438 31.117188 38.183594 C 31.21875 38.132812 31.097656 38.117188 30.578125 38.121094 C 30.214844 38.121094 29.957031 38.132812 30.019531 38.152344 C 30.238281 38.207031 30.304688 38.488281 30.304688 39.355469 C 30.304688 39.804688 30.28125 40.242188 30.25 40.324219 C 30.046875 40.839844 28.769531 40.578125 28.292969 39.933594 C 27.839844 39.304688 27.71875 38.359375 28.019531 37.761719 C 28.25 37.304688 28.5625 37.109375 29.121094 37.085938 C 29.6875 37.054688 29.953125 37.144531 30.285156 37.480469 L 30.554688 37.742188 L 30.511719 37.519531 C 30.390625 36.824219 30.414062 36.867188 30.152344 36.859375 C 30.019531 36.855469 29.6875 36.835938 29.421875 36.816406 C 29.152344 36.792969 28.816406 36.796875 28.675781 36.828125 Z M 28.675781 36.828125 "/>
<path style=" stroke:none;fill-rule:nonzero;fill:rgb(0%,0%,0%);fill-opacity:1;" d="M 40.304688 36.824219 C 39.78125 36.992188 39.511719 37.304688 39.511719 37.738281 C 39.511719 38.042969 39.632812 38.296875 39.839844 38.433594 C 39.925781 38.492188 40.378906 38.660156 40.847656 38.8125 C 41.894531 39.152344 42.074219 39.292969 42.074219 39.769531 C 42.074219 40.03125 42.046875 40.097656 41.871094 40.273438 C 41.621094 40.523438 41.242188 40.632812 40.785156 40.589844 C 40.257812 40.542969 39.835938 40.273438 39.492188 39.757812 C 39.367188 39.566406 39.367188 39.574219 39.511719 40.226562 L 39.640625 40.761719 L 39.925781 40.769531 C 40.085938 40.769531 40.414062 40.804688 40.660156 40.855469 C 41.71875 41.0625 42.546875 40.566406 42.609375 39.695312 C 42.644531 39.230469 42.605469 39.074219 42.367188 38.8125 C 42.121094 38.53125 41.882812 38.414062 41.105469 38.175781 C 40.292969 37.9375 40.097656 37.824219 40.074219 37.585938 C 40.042969 37.285156 40.28125 37.117188 40.761719 37.085938 C 41.105469 37.0625 41.207031 37.085938 41.5 37.226562 C 41.714844 37.328125 41.910156 37.488281 42.023438 37.644531 C 42.128906 37.78125 42.203125 37.855469 42.183594 37.804688 C 42.164062 37.757812 42.117188 37.519531 42.074219 37.285156 L 42 36.859375 L 41.652344 36.855469 C 41.464844 36.847656 41.121094 36.828125 40.882812 36.8125 C 40.652344 36.785156 40.390625 36.792969 40.304688 36.824219 Z M 40.304688 36.824219 "/>
<path style=" stroke:none;fill-rule:nonzero;fill:rgb(0%,0%,0%);fill-opacity:1;" d="M 37.175781 36.871094 L 35.855469 36.890625 L 35.957031 37.054688 C 36.054688 37.203125 36.066406 37.394531 36.066406 38.878906 C 36.066406 40.632812 36.0625 40.675781 35.761719 40.796875 C 35.695312 40.824219 36.316406 40.839844 37.1875 40.835938 L 38.738281 40.824219 L 38.910156 40.316406 C 39.007812 40.035156 39.097656 39.75 39.121094 39.675781 C 39.144531 39.609375 39.042969 39.703125 38.890625 39.882812 C 38.492188 40.367188 38.0625 40.574219 37.425781 40.578125 C 36.714844 40.578125 36.707031 40.574219 36.707031 39.257812 L 36.707031 38.214844 L 37.121094 38.242188 C 37.597656 38.28125 37.824219 38.378906 37.988281 38.632812 C 38.054688 38.730469 38.109375 38.78125 38.105469 38.75 C 38.097656 38.566406 37.878906 37.609375 37.871094 37.726562 C 37.859375 37.921875 37.6875 37.988281 37.171875 37.988281 L 36.707031 37.988281 L 36.707031 37.660156 C 36.707031 37.273438 36.792969 37.160156 37.097656 37.097656 C 37.328125 37.054688 37.933594 37.164062 38.183594 37.292969 C 38.273438 37.339844 38.453125 37.476562 38.566406 37.597656 C 38.683594 37.714844 38.78125 37.785156 38.78125 37.757812 C 38.78125 37.609375 38.578125 36.828125 38.542969 36.839844 C 38.523438 36.855469 37.910156 36.867188 37.175781 36.871094 Z M 37.175781 36.871094 "/>
<path style=" stroke:none;fill-rule:nonzero;fill:rgb(0%,0%,0%);fill-opacity:1;" d="M 7.535156 36.933594 C 7.71875 37.066406 7.742188 37.273438 7.742188 38.871094 C 7.742188 40.5625 7.726562 40.695312 7.480469 40.792969 C 7.296875 40.867188 9.046875 40.867188 9.617188 40.792969 C 10.316406 40.703125 10.730469 40.421875 11.042969 39.816406 C 11.164062 39.589844 11.1875 39.453125 11.1875 38.992188 C 11.1875 38.519531 11.164062 38.402344 11.019531 38.105469 C 10.824219 37.695312 10.355469 37.238281 9.953125 37.054688 C 9.695312 36.933594 9.542969 36.921875 8.566406 36.902344 C 7.964844 36.894531 7.5 36.910156 7.535156 36.933594 Z M 9.664062 37.3125 C 10.589844 37.828125 10.855469 39.464844 10.128906 40.1875 C 9.726562 40.597656 8.878906 40.742188 8.554688 40.464844 L 8.382812 40.316406 L 8.382812 37.304688 L 8.535156 37.183594 C 8.664062 37.078125 8.742188 37.066406 9.023438 37.097656 C 9.214844 37.121094 9.488281 37.214844 9.664062 37.3125 Z M 9.664062 37.3125 "/>
<path style=" stroke:none;fill-rule:nonzero;fill:rgb(0%,0%,0%);fill-opacity:1;" d="M 16.644531 37.011719 C 16.761719 37.128906 16.769531 37.214844 16.769531 38.816406 C 16.769531 39.890625 16.742188 40.542969 16.703125 40.617188 C 16.664062 40.683594 16.578125 40.761719 16.507812 40.792969 C 16.414062 40.828125 16.574219 40.847656 16.980469 40.847656 C 17.445312 40.839844 17.554688 40.828125 17.433594 40.785156 C 17.152344 40.683594 17.128906 40.523438 17.144531 38.8125 L 17.164062 37.226562 L 17.769531 38.273438 C 18.097656 38.855469 18.390625 39.316406 18.414062 39.296875 C 18.4375 39.28125 18.742188 38.8125 19.089844 38.25 L 19.726562 37.226562 L 19.742188 38.816406 C 19.75 39.78125 19.730469 40.476562 19.695312 40.574219 C 19.664062 40.664062 19.574219 40.761719 19.5 40.792969 C 19.402344 40.828125 19.589844 40.847656 20.089844 40.847656 C 20.71875 40.855469 20.796875 40.839844 20.671875 40.773438 C 20.378906 40.628906 20.367188 40.519531 20.378906 38.773438 C 20.394531 37.273438 20.402344 37.132812 20.511719 37.019531 L 20.628906 36.890625 L 20.042969 36.890625 C 19.46875 36.890625 19.453125 36.894531 19.453125 37.023438 C 19.453125 37.152344 18.671875 38.535156 18.597656 38.535156 C 18.53125 38.535156 17.804688 37.140625 17.804688 37.019531 C 17.804688 36.894531 17.773438 36.890625 17.164062 36.890625 L 16.523438 36.890625 Z M 16.644531 37.011719 "/>
<path style=" stroke:none;fill-rule:nonzero;fill:rgb(0%,0%,0%);fill-opacity:1;" d="M 21.4375 37.019531 C 21.546875 37.132812 21.554688 37.273438 21.574219 38.769531 C 21.589844 40.519531 21.566406 40.683594 21.285156 40.785156 C 21.171875 40.828125 21.324219 40.847656 21.890625 40.847656 C 22.542969 40.855469 22.628906 40.839844 22.5 40.773438 C 22.207031 40.628906 22.195312 40.519531 22.207031 38.773438 C 22.226562 37.273438 22.230469 37.132812 22.339844 37.019531 L 22.457031 36.890625 L 21.324219 36.890625 Z M 21.4375 37.019531 "/>
<path style=" stroke:none;fill-rule:nonzero;fill:rgb(0%,0%,0%);fill-opacity:1;" d="M 23.230469 37.011719 C 23.347656 37.128906 23.355469 37.214844 23.355469 38.816406 C 23.355469 39.890625 23.328125 40.542969 23.285156 40.617188 C 23.25 40.683594 23.164062 40.761719 23.089844 40.792969 C 23 40.828125 23.160156 40.847656 23.566406 40.847656 C 24.035156 40.839844 24.140625 40.828125 24.011719 40.785156 C 23.914062 40.75 23.824219 40.652344 23.785156 40.535156 C 23.71875 40.347656 23.6875 37.316406 23.75 37.316406 C 23.828125 37.316406 25.964844 39.144531 26 39.238281 C 26.0625 39.410156 26.042969 40.414062 25.96875 40.574219 C 25.925781 40.660156 25.824219 40.757812 25.738281 40.785156 C 25.617188 40.828125 25.730469 40.847656 26.1875 40.847656 C 26.730469 40.847656 26.78125 40.839844 26.652344 40.769531 C 26.566406 40.71875 26.480469 40.632812 26.457031 40.574219 C 26.433594 40.507812 26.410156 39.707031 26.410156 38.792969 C 26.402344 37.214844 26.410156 37.128906 26.523438 37.011719 L 26.644531 36.890625 L 25.785156 36.890625 L 25.910156 37.046875 C 26.019531 37.1875 26.035156 37.296875 26.035156 37.78125 C 26.035156 38.097656 26.019531 38.355469 26 38.355469 C 25.953125 38.355469 24.566406 37.207031 24.46875 37.085938 C 24.425781 37.035156 24.410156 36.96875 24.425781 36.945312 C 24.445312 36.914062 24.152344 36.890625 23.785156 36.890625 L 23.109375 36.890625 Z M 23.230469 37.011719 "/>
<path style=" stroke:none;fill-rule:nonzero;fill:rgb(0%,0%,0%);fill-opacity:1;" d="M 31.925781 37.042969 C 32.011719 37.171875 32.019531 37.367188 31.980469 38.640625 L 31.9375 40.089844 L 32.085938 40.304688 C 32.292969 40.609375 32.5625 40.769531 33.023438 40.855469 C 33.792969 41 34.546875 40.769531 34.867188 40.285156 L 35.03125 40.035156 L 35.011719 38.609375 C 35 37.394531 35.007812 37.160156 35.089844 37.035156 L 35.183594 36.890625 L 34.78125 36.890625 C 34.378906 36.890625 34.371094 36.890625 34.480469 37.011719 C 34.617188 37.160156 34.683594 37.796875 34.703125 39.023438 C 34.71875 40.097656 34.671875 40.238281 34.1875 40.464844 C 33.671875 40.703125 33.085938 40.632812 32.761719 40.292969 C 32.605469 40.128906 32.589844 40.074219 32.574219 39.523438 C 32.542969 38.585938 32.644531 37.226562 32.769531 37.042969 L 32.867188 36.890625 L 31.828125 36.890625 Z M 31.925781 37.042969 "/>
</g>
</svg>
